<?xml version="1.0" encoding="utf-8" standalone="no"?>
<!DOCTYPE svg PUBLIC "-//W3C//DTD SVG 1.1//EN"
  "http://www.w3.org/Graphics/SVG/1.1/DTD/svg11.dtd">
<svg xmlns:xlink="http://www.w3.org/1999/xlink" width="255.11811pt" height="170.07874pt" viewBox="0 0 255.11811 170.07874" xmlns="http://www.w3.org/2000/svg" version="1.1">
 <metadata>
  <rdf:RDF xmlns:dc="http://purl.org/dc/elements/1.1/" xmlns:cc="http://creativecommons.org/ns#" xmlns:rdf="http://www.w3.org/1999/02/22-rdf-syntax-ns#">
   <cc:Work>
    <dc:type rdf:resource="http://purl.org/dc/dcmitype/StillImage"/>
    <dc:date>2024-10-31T11:16:11.465061</dc:date>
    <dc:format>image/svg+xml</dc:format>
    <dc:creator>
     <cc:Agent>
      <dc:title>Matplotlib v3.9.0, https://matplotlib.org/</dc:title>
     </cc:Agent>
    </dc:creator>
   </cc:Work>
  </rdf:RDF>
 </metadata>
 <defs>
  <style type="text/css">*{stroke-linejoin: round; stroke-linecap: butt}</style>
 </defs>
 <g id="figure_1">
  <g id="patch_1">
   <path d="M 0 170.07874 
L 255.11811 170.07874 
L 255.11811 0 
L 0 0 
z
" style="fill: #ffffff"/>
  </g>
  <g id="axes_1">
   <g id="patch_2">
    <path d="M 31.889764 151.370079 
L 229.606299 151.370079 
L 229.606299 20.409449 
L 31.889764 20.409449 
z
" style="fill: #ffffff"/>
   </g>
   <g id="matplotlib.axis_1">
    <g id="xtick_1">
     <g id="line2d_1">
      <defs>
       <path id="m7701b397b4" d="M 0 0 
L 0 3.5 
" style="stroke: #000000; stroke-width: 0.8"/>
      </defs>
      <g>
       <use xlink:href="#m7701b397b4" x="38.068406" y="151.370079" style="stroke: #000000; stroke-width: 0.8"/>
      </g>
     </g>
     <g id="text_1">
      <!-- Mol -->
      <g transform="translate(26.549636 173.179215) rotate(-45) scale(0.09 -0.09)">
       <defs>
        <path id="ArialMT-4d" d="M 475 0 
L 475 4581 
L 1388 4581 
L 2472 1338 
Q 2622 884 2691 659 
Q 2769 909 2934 1394 
L 4031 4581 
L 4847 4581 
L 4847 0 
L 4263 0 
L 4263 3834 
L 2931 0 
L 2384 0 
L 1059 3900 
L 1059 0 
L 475 0 
z
" transform="scale(0.015625)"/>
        <path id="ArialMT-6f" d="M 213 1659 
Q 213 2581 725 3025 
Q 1153 3394 1769 3394 
Q 2453 3394 2887 2945 
Q 3322 2497 3322 1706 
Q 3322 1066 3130 698 
Q 2938 331 2570 128 
Q 2203 -75 1769 -75 
Q 1072 -75 642 372 
Q 213 819 213 1659 
z
M 791 1659 
Q 791 1022 1069 705 
Q 1347 388 1769 388 
Q 2188 388 2466 706 
Q 2744 1025 2744 1678 
Q 2744 2294 2464 2611 
Q 2184 2928 1769 2928 
Q 1347 2928 1069 2612 
Q 791 2297 791 1659 
z
" transform="scale(0.015625)"/>
        <path id="ArialMT-6c" d="M 409 0 
L 409 4581 
L 972 4581 
L 972 0 
L 409 0 
z
" transform="scale(0.015625)"/>
       </defs>
       <use xlink:href="#ArialMT-4d"/>
       <use xlink:href="#ArialMT-6f" x="83.300781"/>
       <use xlink:href="#ArialMT-6c" x="138.916016"/>
      </g>
     </g>
    </g>
    <g id="xtick_2">
     <g id="line2d_2">
      <g>
       <use xlink:href="#m7701b397b4" x="50.425689" y="151.370079" style="stroke: #000000; stroke-width: 0.8"/>
      </g>
     </g>
     <g id="text_2">
      <!-- Vol -->
      <g transform="translate(40.312957 171.773177) rotate(-45) scale(0.09 -0.09)">
       <defs>
        <path id="ArialMT-56" d="M 1803 0 
L 28 4581 
L 684 4581 
L 1875 1253 
Q 2019 853 2116 503 
Q 2222 878 2363 1253 
L 3600 4581 
L 4219 4581 
L 2425 0 
L 1803 0 
z
" transform="scale(0.015625)"/>
       </defs>
       <use xlink:href="#ArialMT-56"/>
       <use xlink:href="#ArialMT-6f" x="61.199219"/>
       <use xlink:href="#ArialMT-6c" x="116.814453"/>
      </g>
     </g>
    </g>
    <g id="xtick_3">
     <g id="line2d_3">
      <g>
       <use xlink:href="#m7701b397b4" x="62.782972" y="151.370079" style="stroke: #000000; stroke-width: 0.8"/>
      </g>
     </g>
     <g id="text_3">
      <!-- Aux -->
      <g transform="translate(50.552235 173.891183) rotate(-45) scale(0.09 -0.09)">
       <defs>
        <path id="ArialMT-41" d="M -9 0 
L 1750 4581 
L 2403 4581 
L 4278 0 
L 3588 0 
L 3053 1388 
L 1138 1388 
L 634 0 
L -9 0 
z
M 1313 1881 
L 2866 1881 
L 2388 3150 
Q 2169 3728 2063 4100 
Q 1975 3659 1816 3225 
L 1313 1881 
z
" transform="scale(0.015625)"/>
        <path id="ArialMT-75" d="M 2597 0 
L 2597 488 
Q 2209 -75 1544 -75 
Q 1250 -75 995 37 
Q 741 150 617 320 
Q 494 491 444 738 
Q 409 903 409 1263 
L 409 3319 
L 972 3319 
L 972 1478 
Q 972 1038 1006 884 
Q 1059 663 1231 536 
Q 1403 409 1656 409 
Q 1909 409 2131 539 
Q 2353 669 2445 892 
Q 2538 1116 2538 1541 
L 2538 3319 
L 3100 3319 
L 3100 0 
L 2597 0 
z
" transform="scale(0.015625)"/>
        <path id="ArialMT-78" d="M 47 0 
L 1259 1725 
L 138 3319 
L 841 3319 
L 1350 2541 
Q 1494 2319 1581 2169 
Q 1719 2375 1834 2534 
L 2394 3319 
L 3066 3319 
L 1919 1756 
L 3153 0 
L 2463 0 
L 1781 1031 
L 1600 1309 
L 728 0 
L 47 0 
z
" transform="scale(0.015625)"/>
       </defs>
       <use xlink:href="#ArialMT-41"/>
       <use xlink:href="#ArialMT-75" x="66.699219"/>
       <use xlink:href="#ArialMT-78" x="122.314453"/>
      </g>
     </g>
    </g>
    <g id="xtick_4">
     <g id="line2d_4">
      <g>
       <use xlink:href="#m7701b397b4" x="75.140256" y="151.370079" style="stroke: #000000; stroke-width: 0.8"/>
      </g>
     </g>
     <g id="text_4">
      <!-- CaM -->
      <g transform="translate(60.439506 176.361195) rotate(-45) scale(0.09 -0.09)">
       <defs>
        <path id="ArialMT-43" d="M 3763 1606 
L 4369 1453 
Q 4178 706 3683 314 
Q 3188 -78 2472 -78 
Q 1731 -78 1267 223 
Q 803 525 561 1097 
Q 319 1669 319 2325 
Q 319 3041 592 3573 
Q 866 4106 1370 4382 
Q 1875 4659 2481 4659 
Q 3169 4659 3637 4309 
Q 4106 3959 4291 3325 
L 3694 3184 
Q 3534 3684 3231 3912 
Q 2928 4141 2469 4141 
Q 1941 4141 1586 3887 
Q 1231 3634 1087 3207 
Q 944 2781 944 2328 
Q 944 1744 1114 1308 
Q 1284 872 1643 656 
Q 2003 441 2422 441 
Q 2931 441 3284 734 
Q 3638 1028 3763 1606 
z
" transform="scale(0.015625)"/>
        <path id="ArialMT-61" d="M 2588 409 
Q 2275 144 1986 34 
Q 1697 -75 1366 -75 
Q 819 -75 525 192 
Q 231 459 231 875 
Q 231 1119 342 1320 
Q 453 1522 633 1644 
Q 813 1766 1038 1828 
Q 1203 1872 1538 1913 
Q 2219 1994 2541 2106 
Q 2544 2222 2544 2253 
Q 2544 2597 2384 2738 
Q 2169 2928 1744 2928 
Q 1347 2928 1158 2789 
Q 969 2650 878 2297 
L 328 2372 
Q 403 2725 575 2942 
Q 747 3159 1072 3276 
Q 1397 3394 1825 3394 
Q 2250 3394 2515 3294 
Q 2781 3194 2906 3042 
Q 3031 2891 3081 2659 
Q 3109 2516 3109 2141 
L 3109 1391 
Q 3109 606 3145 398 
Q 3181 191 3288 0 
L 2700 0 
Q 2613 175 2588 409 
z
M 2541 1666 
Q 2234 1541 1622 1453 
Q 1275 1403 1131 1340 
Q 988 1278 909 1158 
Q 831 1038 831 891 
Q 831 666 1001 516 
Q 1172 366 1500 366 
Q 1825 366 2078 508 
Q 2331 650 2450 897 
Q 2541 1088 2541 1459 
L 2541 1666 
z
" transform="scale(0.015625)"/>
       </defs>
       <use xlink:href="#ArialMT-43"/>
       <use xlink:href="#ArialMT-61" x="72.216797"/>
       <use xlink:href="#ArialMT-4d" x="127.832031"/>
      </g>
     </g>
    </g>
    <g id="xtick_5">
     <g id="line2d_5">
      <g>
       <use xlink:href="#m7701b397b4" x="87.497539" y="151.370079" style="stroke: #000000; stroke-width: 0.8"/>
      </g>
     </g>
     <g id="text_5">
      <!-- Dia -->
      <g transform="translate(76.683777 172.474207) rotate(-45) scale(0.09 -0.09)">
       <defs>
        <path id="ArialMT-44" d="M 494 0 
L 494 4581 
L 2072 4581 
Q 2606 4581 2888 4516 
Q 3281 4425 3559 4188 
Q 3922 3881 4101 3404 
Q 4281 2928 4281 2316 
Q 4281 1794 4159 1391 
Q 4038 988 3847 723 
Q 3656 459 3429 307 
Q 3203 156 2883 78 
Q 2563 0 2147 0 
L 494 0 
z
M 1100 541 
L 2078 541 
Q 2531 541 2789 625 
Q 3047 709 3200 863 
Q 3416 1078 3536 1442 
Q 3656 1806 3656 2325 
Q 3656 3044 3420 3430 
Q 3184 3816 2847 3947 
Q 2603 4041 2063 4041 
L 1100 4041 
L 1100 541 
z
" transform="scale(0.015625)"/>
        <path id="ArialMT-69" d="M 425 3934 
L 425 4581 
L 988 4581 
L 988 3934 
L 425 3934 
z
M 425 0 
L 425 3319 
L 988 3319 
L 988 0 
L 425 0 
z
" transform="scale(0.015625)"/>
       </defs>
       <use xlink:href="#ArialMT-44"/>
       <use xlink:href="#ArialMT-69" x="72.216797"/>
       <use xlink:href="#ArialMT-61" x="94.433594"/>
      </g>
     </g>
    </g>
    <g id="xtick_6">
     <g id="line2d_6">
      <g>
       <use xlink:href="#m7701b397b4" x="99.854823" y="151.370079" style="stroke: #000000; stroke-width: 0.8"/>
      </g>
     </g>
     <g id="text_6">
      <!-- OR1A1 -->
      <g transform="translate(77.721165 183.794103) rotate(-45) scale(0.09 -0.09)">
       <defs>
        <path id="ArialMT-4f" d="M 309 2231 
Q 309 3372 921 4017 
Q 1534 4663 2503 4663 
Q 3138 4663 3647 4359 
Q 4156 4056 4423 3514 
Q 4691 2972 4691 2284 
Q 4691 1588 4409 1038 
Q 4128 488 3612 205 
Q 3097 -78 2500 -78 
Q 1853 -78 1343 234 
Q 834 547 571 1087 
Q 309 1628 309 2231 
z
M 934 2222 
Q 934 1394 1379 917 
Q 1825 441 2497 441 
Q 3181 441 3623 922 
Q 4066 1403 4066 2288 
Q 4066 2847 3877 3264 
Q 3688 3681 3323 3911 
Q 2959 4141 2506 4141 
Q 1863 4141 1398 3698 
Q 934 3256 934 2222 
z
" transform="scale(0.015625)"/>
        <path id="ArialMT-52" d="M 503 0 
L 503 4581 
L 2534 4581 
Q 3147 4581 3465 4457 
Q 3784 4334 3975 4021 
Q 4166 3709 4166 3331 
Q 4166 2844 3850 2509 
Q 3534 2175 2875 2084 
Q 3116 1969 3241 1856 
Q 3506 1613 3744 1247 
L 4541 0 
L 3778 0 
L 3172 953 
Q 2906 1366 2734 1584 
Q 2563 1803 2427 1890 
Q 2291 1978 2150 2013 
Q 2047 2034 1813 2034 
L 1109 2034 
L 1109 0 
L 503 0 
z
M 1109 2559 
L 2413 2559 
Q 2828 2559 3062 2645 
Q 3297 2731 3419 2920 
Q 3541 3109 3541 3331 
Q 3541 3656 3305 3865 
Q 3069 4075 2559 4075 
L 1109 4075 
L 1109 2559 
z
" transform="scale(0.015625)"/>
        <path id="ArialMT-31" d="M 2384 0 
L 1822 0 
L 1822 3584 
Q 1619 3391 1289 3197 
Q 959 3003 697 2906 
L 697 3450 
Q 1169 3672 1522 3987 
Q 1875 4303 2022 4600 
L 2384 4600 
L 2384 0 
z
" transform="scale(0.015625)"/>
       </defs>
       <use xlink:href="#ArialMT-4f"/>
       <use xlink:href="#ArialMT-52" x="77.783203"/>
       <use xlink:href="#ArialMT-31" x="150"/>
       <use xlink:href="#ArialMT-41" x="205.615234"/>
       <use xlink:href="#ArialMT-31" x="272.314453"/>
      </g>
     </g>
    </g>
    <g id="xtick_7">
     <g id="line2d_7">
      <g>
       <use xlink:href="#m7701b397b4" x="112.212106" y="151.370079" style="stroke: #000000; stroke-width: 0.8"/>
      </g>
     </g>
     <g id="text_7">
      <!-- SecYE-G -->
      <g transform="translate(84.422478 189.450073) rotate(-45) scale(0.09 -0.09)">
       <defs>
        <path id="ArialMT-53" d="M 288 1472 
L 859 1522 
Q 900 1178 1048 958 
Q 1197 738 1509 602 
Q 1822 466 2213 466 
Q 2559 466 2825 569 
Q 3091 672 3220 851 
Q 3350 1031 3350 1244 
Q 3350 1459 3225 1620 
Q 3100 1781 2813 1891 
Q 2628 1963 1997 2114 
Q 1366 2266 1113 2400 
Q 784 2572 623 2826 
Q 463 3081 463 3397 
Q 463 3744 659 4045 
Q 856 4347 1234 4503 
Q 1613 4659 2075 4659 
Q 2584 4659 2973 4495 
Q 3363 4331 3572 4012 
Q 3781 3694 3797 3291 
L 3216 3247 
Q 3169 3681 2898 3903 
Q 2628 4125 2100 4125 
Q 1550 4125 1298 3923 
Q 1047 3722 1047 3438 
Q 1047 3191 1225 3031 
Q 1400 2872 2139 2705 
Q 2878 2538 3153 2413 
Q 3553 2228 3743 1945 
Q 3934 1663 3934 1294 
Q 3934 928 3725 604 
Q 3516 281 3123 101 
Q 2731 -78 2241 -78 
Q 1619 -78 1198 103 
Q 778 284 539 648 
Q 300 1013 288 1472 
z
" transform="scale(0.015625)"/>
        <path id="ArialMT-65" d="M 2694 1069 
L 3275 997 
Q 3138 488 2766 206 
Q 2394 -75 1816 -75 
Q 1088 -75 661 373 
Q 234 822 234 1631 
Q 234 2469 665 2931 
Q 1097 3394 1784 3394 
Q 2450 3394 2872 2941 
Q 3294 2488 3294 1666 
Q 3294 1616 3291 1516 
L 816 1516 
Q 847 969 1125 678 
Q 1403 388 1819 388 
Q 2128 388 2347 550 
Q 2566 713 2694 1069 
z
M 847 1978 
L 2700 1978 
Q 2663 2397 2488 2606 
Q 2219 2931 1791 2931 
Q 1403 2931 1139 2672 
Q 875 2413 847 1978 
z
" transform="scale(0.015625)"/>
        <path id="ArialMT-63" d="M 2588 1216 
L 3141 1144 
Q 3050 572 2676 248 
Q 2303 -75 1759 -75 
Q 1078 -75 664 370 
Q 250 816 250 1647 
Q 250 2184 428 2587 
Q 606 2991 970 3192 
Q 1334 3394 1763 3394 
Q 2303 3394 2647 3120 
Q 2991 2847 3088 2344 
L 2541 2259 
Q 2463 2594 2264 2762 
Q 2066 2931 1784 2931 
Q 1359 2931 1093 2626 
Q 828 2322 828 1663 
Q 828 994 1084 691 
Q 1341 388 1753 388 
Q 2084 388 2306 591 
Q 2528 794 2588 1216 
z
" transform="scale(0.015625)"/>
        <path id="ArialMT-59" d="M 1784 0 
L 1784 1941 
L 19 4581 
L 756 4581 
L 1659 3200 
Q 1909 2813 2125 2425 
Q 2331 2784 2625 3234 
L 3513 4581 
L 4219 4581 
L 2391 1941 
L 2391 0 
L 1784 0 
z
" transform="scale(0.015625)"/>
        <path id="ArialMT-45" d="M 506 0 
L 506 4581 
L 3819 4581 
L 3819 4041 
L 1113 4041 
L 1113 2638 
L 3647 2638 
L 3647 2100 
L 1113 2100 
L 1113 541 
L 3925 541 
L 3925 0 
L 506 0 
z
" transform="scale(0.015625)"/>
        <path id="ArialMT-2d" d="M 203 1375 
L 203 1941 
L 1931 1941 
L 1931 1375 
L 203 1375 
z
" transform="scale(0.015625)"/>
        <path id="ArialMT-47" d="M 2638 1797 
L 2638 2334 
L 4578 2338 
L 4578 638 
Q 4131 281 3656 101 
Q 3181 -78 2681 -78 
Q 2006 -78 1454 211 
Q 903 500 622 1047 
Q 341 1594 341 2269 
Q 341 2938 620 3517 
Q 900 4097 1425 4378 
Q 1950 4659 2634 4659 
Q 3131 4659 3532 4498 
Q 3934 4338 4162 4050 
Q 4391 3763 4509 3300 
L 3963 3150 
Q 3859 3500 3706 3700 
Q 3553 3900 3268 4020 
Q 2984 4141 2638 4141 
Q 2222 4141 1919 4014 
Q 1616 3888 1430 3681 
Q 1244 3475 1141 3228 
Q 966 2803 966 2306 
Q 966 1694 1177 1281 
Q 1388 869 1791 669 
Q 2194 469 2647 469 
Q 3041 469 3416 620 
Q 3791 772 3984 944 
L 3984 1797 
L 2638 1797 
z
" transform="scale(0.015625)"/>
       </defs>
       <use xlink:href="#ArialMT-53"/>
       <use xlink:href="#ArialMT-65" x="66.699219"/>
       <use xlink:href="#ArialMT-63" x="122.314453"/>
       <use xlink:href="#ArialMT-59" x="172.314453"/>
       <use xlink:href="#ArialMT-45" x="239.013672"/>
       <use xlink:href="#ArialMT-2d" x="305.712891"/>
       <use xlink:href="#ArialMT-47" x="339.013672"/>
      </g>
     </g>
    </g>
    <g id="xtick_8">
     <g id="line2d_8">
      <g>
       <use xlink:href="#m7701b397b4" x="124.56939" y="151.370079" style="stroke: #000000; stroke-width: 0.8"/>
      </g>
     </g>
     <g id="text_8">
      <!-- Glut -->
      <g transform="translate(111.633645 174.596191) rotate(-45) scale(0.09 -0.09)">
       <defs>
        <path id="ArialMT-74" d="M 1650 503 
L 1731 6 
Q 1494 -44 1306 -44 
Q 1000 -44 831 53 
Q 663 150 594 308 
Q 525 466 525 972 
L 525 2881 
L 113 2881 
L 113 3319 
L 525 3319 
L 525 4141 
L 1084 4478 
L 1084 3319 
L 1650 3319 
L 1650 2881 
L 1084 2881 
L 1084 941 
Q 1084 700 1114 631 
Q 1144 563 1211 522 
Q 1278 481 1403 481 
Q 1497 481 1650 503 
z
" transform="scale(0.015625)"/>
       </defs>
       <use xlink:href="#ArialMT-47"/>
       <use xlink:href="#ArialMT-6c" x="77.783203"/>
       <use xlink:href="#ArialMT-75" x="100"/>
       <use xlink:href="#ArialMT-74" x="155.615234"/>
      </g>
     </g>
    </g>
    <g id="xtick_9">
     <g id="line2d_9">
      <g>
       <use xlink:href="#m7701b397b4" x="136.926673" y="151.370079" style="stroke: #000000; stroke-width: 0.8"/>
      </g>
     </g>
     <g id="text_9">
      <!-- Mito -->
      <g transform="translate(123.639916 174.947203) rotate(-45) scale(0.09 -0.09)">
       <use xlink:href="#ArialMT-4d"/>
       <use xlink:href="#ArialMT-69" x="83.300781"/>
       <use xlink:href="#ArialMT-74" x="105.517578"/>
       <use xlink:href="#ArialMT-6f" x="133.300781"/>
      </g>
     </g>
    </g>
    <g id="xtick_10">
     <g id="line2d_10">
      <g>
       <use xlink:href="#m7701b397b4" x="149.283957" y="151.370079" style="stroke: #000000; stroke-width: 0.8"/>
      </g>
     </g>
     <g id="text_10">
      <!-- CD47 -->
      <g transform="translate(131.749255 179.195147) rotate(-45) scale(0.09 -0.09)">
       <defs>
        <path id="ArialMT-34" d="M 2069 0 
L 2069 1097 
L 81 1097 
L 81 1613 
L 2172 4581 
L 2631 4581 
L 2631 1613 
L 3250 1613 
L 3250 1097 
L 2631 1097 
L 2631 0 
L 2069 0 
z
M 2069 1613 
L 2069 3678 
L 634 1613 
L 2069 1613 
z
" transform="scale(0.015625)"/>
        <path id="ArialMT-37" d="M 303 3981 
L 303 4522 
L 3269 4522 
L 3269 4084 
Q 2831 3619 2401 2847 
Q 1972 2075 1738 1259 
Q 1569 684 1522 0 
L 944 0 
Q 953 541 1156 1306 
Q 1359 2072 1739 2783 
Q 2119 3494 2547 3981 
L 303 3981 
z
" transform="scale(0.015625)"/>
       </defs>
       <use xlink:href="#ArialMT-43"/>
       <use xlink:href="#ArialMT-44" x="72.216797"/>
       <use xlink:href="#ArialMT-34" x="144.433594"/>
       <use xlink:href="#ArialMT-37" x="200.048828"/>
      </g>
     </g>
    </g>
    <g id="xtick_11">
     <g id="line2d_11">
      <g>
       <use xlink:href="#m7701b397b4" x="161.64124" y="151.370079" style="stroke: #000000; stroke-width: 0.8"/>
      </g>
     </g>
     <g id="text_11">
      <!-- CD9 -->
      <g transform="translate(147.645498 175.656188) rotate(-45) scale(0.09 -0.09)">
       <defs>
        <path id="ArialMT-39" d="M 350 1059 
L 891 1109 
Q 959 728 1153 556 
Q 1347 384 1650 384 
Q 1909 384 2104 503 
Q 2300 622 2425 820 
Q 2550 1019 2634 1356 
Q 2719 1694 2719 2044 
Q 2719 2081 2716 2156 
Q 2547 1888 2255 1720 
Q 1963 1553 1622 1553 
Q 1053 1553 659 1965 
Q 266 2378 266 3053 
Q 266 3750 677 4175 
Q 1088 4600 1706 4600 
Q 2153 4600 2523 4359 
Q 2894 4119 3086 3673 
Q 3278 3228 3278 2384 
Q 3278 1506 3087 986 
Q 2897 466 2520 194 
Q 2144 -78 1638 -78 
Q 1100 -78 759 220 
Q 419 519 350 1059 
z
M 2653 3081 
Q 2653 3566 2395 3850 
Q 2138 4134 1775 4134 
Q 1400 4134 1122 3828 
Q 844 3522 844 3034 
Q 844 2597 1108 2323 
Q 1372 2050 1759 2050 
Q 2150 2050 2401 2323 
Q 2653 2597 2653 3081 
z
" transform="scale(0.015625)"/>
       </defs>
       <use xlink:href="#ArialMT-43"/>
       <use xlink:href="#ArialMT-44" x="72.216797"/>
       <use xlink:href="#ArialMT-39" x="144.433594"/>
      </g>
     </g>
    </g>
    <g id="xtick_12">
     <g id="line2d_12">
      <g>
       <use xlink:href="#m7701b397b4" x="173.998524" y="151.370079" style="stroke: #000000; stroke-width: 0.8"/>
      </g>
     </g>
     <g id="text_12">
      <!-- InP -->
      <g transform="translate(163.181779 172.47719) rotate(-45) scale(0.09 -0.09)">
       <defs>
        <path id="ArialMT-49" d="M 597 0 
L 597 4581 
L 1203 4581 
L 1203 0 
L 597 0 
z
" transform="scale(0.015625)"/>
        <path id="ArialMT-6e" d="M 422 0 
L 422 3319 
L 928 3319 
L 928 2847 
Q 1294 3394 1984 3394 
Q 2284 3394 2536 3286 
Q 2788 3178 2913 3003 
Q 3038 2828 3088 2588 
Q 3119 2431 3119 2041 
L 3119 0 
L 2556 0 
L 2556 2019 
Q 2556 2363 2490 2533 
Q 2425 2703 2258 2804 
Q 2091 2906 1866 2906 
Q 1506 2906 1245 2678 
Q 984 2450 984 1813 
L 984 0 
L 422 0 
z
" transform="scale(0.015625)"/>
        <path id="ArialMT-50" d="M 494 0 
L 494 4581 
L 2222 4581 
Q 2678 4581 2919 4538 
Q 3256 4481 3484 4323 
Q 3713 4166 3852 3881 
Q 3991 3597 3991 3256 
Q 3991 2672 3619 2267 
Q 3247 1863 2275 1863 
L 1100 1863 
L 1100 0 
L 494 0 
z
M 1100 2403 
L 2284 2403 
Q 2872 2403 3119 2622 
Q 3366 2841 3366 3238 
Q 3366 3525 3220 3729 
Q 3075 3934 2838 4000 
Q 2684 4041 2272 4041 
L 1100 4041 
L 1100 2403 
z
" transform="scale(0.015625)"/>
       </defs>
       <use xlink:href="#ArialMT-49"/>
       <use xlink:href="#ArialMT-6e" x="27.783203"/>
       <use xlink:href="#ArialMT-50" x="83.398438"/>
      </g>
     </g>
    </g>
    <g id="xtick_13">
     <g id="line2d_13">
      <g>
       <use xlink:href="#m7701b397b4" x="186.355807" y="151.370079" style="stroke: #000000; stroke-width: 0.8"/>
      </g>
     </g>
     <g id="text_13">
      <!-- MscL -->
      <g transform="translate(169.887069 178.129183) rotate(-45) scale(0.09 -0.09)">
       <defs>
        <path id="ArialMT-73" d="M 197 991 
L 753 1078 
Q 800 744 1014 566 
Q 1228 388 1613 388 
Q 2000 388 2187 545 
Q 2375 703 2375 916 
Q 2375 1106 2209 1216 
Q 2094 1291 1634 1406 
Q 1016 1563 777 1677 
Q 538 1791 414 1992 
Q 291 2194 291 2438 
Q 291 2659 392 2848 
Q 494 3038 669 3163 
Q 800 3259 1026 3326 
Q 1253 3394 1513 3394 
Q 1903 3394 2198 3281 
Q 2494 3169 2634 2976 
Q 2775 2784 2828 2463 
L 2278 2388 
Q 2241 2644 2061 2787 
Q 1881 2931 1553 2931 
Q 1166 2931 1000 2803 
Q 834 2675 834 2503 
Q 834 2394 903 2306 
Q 972 2216 1119 2156 
Q 1203 2125 1616 2013 
Q 2213 1853 2448 1751 
Q 2684 1650 2818 1456 
Q 2953 1263 2953 975 
Q 2953 694 2789 445 
Q 2625 197 2315 61 
Q 2006 -75 1616 -75 
Q 969 -75 630 194 
Q 291 463 197 991 
z
" transform="scale(0.015625)"/>
        <path id="ArialMT-4c" d="M 469 0 
L 469 4581 
L 1075 4581 
L 1075 541 
L 3331 541 
L 3331 0 
L 469 0 
z
" transform="scale(0.015625)"/>
       </defs>
       <use xlink:href="#ArialMT-4d"/>
       <use xlink:href="#ArialMT-73" x="83.300781"/>
       <use xlink:href="#ArialMT-63" x="133.300781"/>
       <use xlink:href="#ArialMT-4c" x="183.300781"/>
      </g>
     </g>
    </g>
    <g id="xtick_14">
     <g id="line2d_14">
      <g>
       <use xlink:href="#m7701b397b4" x="198.713091" y="151.370079" style="stroke: #000000; stroke-width: 0.8"/>
      </g>
     </g>
     <g id="text_14">
      <!-- Beta -->
      <g transform="translate(184.357387 176.016149) rotate(-45) scale(0.09 -0.09)">
       <defs>
        <path id="ArialMT-42" d="M 469 0 
L 469 4581 
L 2188 4581 
Q 2713 4581 3030 4442 
Q 3347 4303 3526 4014 
Q 3706 3725 3706 3409 
Q 3706 3116 3547 2856 
Q 3388 2597 3066 2438 
Q 3481 2316 3704 2022 
Q 3928 1728 3928 1328 
Q 3928 1006 3792 729 
Q 3656 453 3456 303 
Q 3256 153 2954 76 
Q 2653 0 2216 0 
L 469 0 
z
M 1075 2656 
L 2066 2656 
Q 2469 2656 2644 2709 
Q 2875 2778 2992 2937 
Q 3109 3097 3109 3338 
Q 3109 3566 3000 3739 
Q 2891 3913 2687 3977 
Q 2484 4041 1991 4041 
L 1075 4041 
L 1075 2656 
z
M 1075 541 
L 2216 541 
Q 2509 541 2628 563 
Q 2838 600 2978 687 
Q 3119 775 3209 942 
Q 3300 1109 3300 1328 
Q 3300 1584 3169 1773 
Q 3038 1963 2805 2039 
Q 2572 2116 2134 2116 
L 1075 2116 
L 1075 541 
z
" transform="scale(0.015625)"/>
       </defs>
       <use xlink:href="#ArialMT-42"/>
       <use xlink:href="#ArialMT-65" x="66.699219"/>
       <use xlink:href="#ArialMT-74" x="122.314453"/>
       <use xlink:href="#ArialMT-61" x="150.097656"/>
      </g>
     </g>
    </g>
    <g id="xtick_15">
     <g id="line2d_15">
      <g>
       <use xlink:href="#m7701b397b4" x="211.070374" y="151.370079" style="stroke: #000000; stroke-width: 0.8"/>
      </g>
     </g>
     <g id="text_15">
      <!-- AqpZ -->
      <g transform="translate(194.59567 178.13515) rotate(-45) scale(0.09 -0.09)">
       <defs>
        <path id="ArialMT-71" d="M 2538 -1272 
L 2538 353 
Q 2406 169 2170 47 
Q 1934 -75 1669 -75 
Q 1078 -75 651 397 
Q 225 869 225 1691 
Q 225 2191 398 2587 
Q 572 2984 901 3189 
Q 1231 3394 1625 3394 
Q 2241 3394 2594 2875 
L 2594 3319 
L 3100 3319 
L 3100 -1272 
L 2538 -1272 
z
M 803 1669 
Q 803 1028 1072 708 
Q 1341 388 1716 388 
Q 2075 388 2334 692 
Q 2594 997 2594 1619 
Q 2594 2281 2320 2615 
Q 2047 2950 1678 2950 
Q 1313 2950 1058 2639 
Q 803 2328 803 1669 
z
" transform="scale(0.015625)"/>
        <path id="ArialMT-70" d="M 422 -1272 
L 422 3319 
L 934 3319 
L 934 2888 
Q 1116 3141 1344 3267 
Q 1572 3394 1897 3394 
Q 2322 3394 2647 3175 
Q 2972 2956 3137 2557 
Q 3303 2159 3303 1684 
Q 3303 1175 3120 767 
Q 2938 359 2589 142 
Q 2241 -75 1856 -75 
Q 1575 -75 1351 44 
Q 1128 163 984 344 
L 984 -1272 
L 422 -1272 
z
M 931 1641 
Q 931 1000 1190 694 
Q 1450 388 1819 388 
Q 2194 388 2461 705 
Q 2728 1022 2728 1688 
Q 2728 2322 2467 2637 
Q 2206 2953 1844 2953 
Q 1484 2953 1207 2617 
Q 931 2281 931 1641 
z
" transform="scale(0.015625)"/>
        <path id="ArialMT-5a" d="M 128 0 
L 128 563 
L 2475 3497 
Q 2725 3809 2950 4041 
L 394 4041 
L 394 4581 
L 3675 4581 
L 3675 4041 
L 1103 863 
L 825 541 
L 3750 541 
L 3750 0 
L 128 0 
z
" transform="scale(0.015625)"/>
       </defs>
       <use xlink:href="#ArialMT-41"/>
       <use xlink:href="#ArialMT-71" x="66.699219"/>
       <use xlink:href="#ArialMT-70" x="122.314453"/>
       <use xlink:href="#ArialMT-5a" x="177.929688"/>
      </g>
     </g>
    </g>
    <g id="xtick_16">
     <g id="line2d_16">
      <g>
       <use xlink:href="#m7701b397b4" x="223.427657" y="151.370079" style="stroke: #000000; stroke-width: 0.8"/>
      </g>
     </g>
     <g id="text_16">
      <!-- MtlA -->
      <g transform="translate(209.434898 175.653205) rotate(-45) scale(0.09 -0.09)">
       <use xlink:href="#ArialMT-4d"/>
       <use xlink:href="#ArialMT-74" x="83.300781"/>
       <use xlink:href="#ArialMT-6c" x="111.083984"/>
       <use xlink:href="#ArialMT-41" x="133.300781"/>
      </g>
     </g>
    </g>
   </g>
   <g id="matplotlib.axis_2">
    <g id="ytick_1">
     <g id="line2d_17">
      <defs>
       <path id="mdc795d31b0" d="M 0 0 
L -3.5 0 
" style="stroke: #000000; stroke-width: 0.8"/>
      </defs>
      <g>
       <use xlink:href="#mdc795d31b0" x="31.889764" y="142.077116" style="stroke: #000000; stroke-width: 0.8"/>
      </g>
     </g>
     <g id="text_17">
      <!-- 0.2 -->
      <g transform="translate(12.379764 145.298132) scale(0.09 -0.09)">
       <defs>
        <path id="ArialMT-30" d="M 266 2259 
Q 266 3072 433 3567 
Q 600 4063 929 4331 
Q 1259 4600 1759 4600 
Q 2128 4600 2406 4451 
Q 2684 4303 2865 4023 
Q 3047 3744 3150 3342 
Q 3253 2941 3253 2259 
Q 3253 1453 3087 958 
Q 2922 463 2592 192 
Q 2263 -78 1759 -78 
Q 1097 -78 719 397 
Q 266 969 266 2259 
z
M 844 2259 
Q 844 1131 1108 757 
Q 1372 384 1759 384 
Q 2147 384 2411 759 
Q 2675 1134 2675 2259 
Q 2675 3391 2411 3762 
Q 2147 4134 1753 4134 
Q 1366 4134 1134 3806 
Q 844 3388 844 2259 
z
" transform="scale(0.015625)"/>
        <path id="ArialMT-2e" d="M 581 0 
L 581 641 
L 1222 641 
L 1222 0 
L 581 0 
z
" transform="scale(0.015625)"/>
        <path id="ArialMT-32" d="M 3222 541 
L 3222 0 
L 194 0 
Q 188 203 259 391 
Q 375 700 629 1000 
Q 884 1300 1366 1694 
Q 2113 2306 2375 2664 
Q 2638 3022 2638 3341 
Q 2638 3675 2398 3904 
Q 2159 4134 1775 4134 
Q 1369 4134 1125 3890 
Q 881 3647 878 3216 
L 300 3275 
Q 359 3922 746 4261 
Q 1134 4600 1788 4600 
Q 2447 4600 2831 4234 
Q 3216 3869 3216 3328 
Q 3216 3053 3103 2787 
Q 2991 2522 2730 2228 
Q 2469 1934 1863 1422 
Q 1356 997 1212 845 
Q 1069 694 975 541 
L 3222 541 
z
" transform="scale(0.015625)"/>
       </defs>
       <use xlink:href="#ArialMT-30"/>
       <use xlink:href="#ArialMT-2e" x="55.615234"/>
       <use xlink:href="#ArialMT-32" x="83.398438"/>
      </g>
     </g>
    </g>
    <g id="ytick_2">
     <g id="line2d_18">
      <g>
       <use xlink:href="#mdc795d31b0" x="31.889764" y="110.603698" style="stroke: #000000; stroke-width: 0.8"/>
      </g>
     </g>
     <g id="text_18">
      <!-- 0.4 -->
      <g transform="translate(12.379764 113.824714) scale(0.09 -0.09)">
       <use xlink:href="#ArialMT-30"/>
       <use xlink:href="#ArialMT-2e" x="55.615234"/>
       <use xlink:href="#ArialMT-34" x="83.398438"/>
      </g>
     </g>
    </g>
    <g id="ytick_3">
     <g id="line2d_19">
      <g>
       <use xlink:href="#mdc795d31b0" x="31.889764" y="79.13028" style="stroke: #000000; stroke-width: 0.8"/>
      </g>
     </g>
     <g id="text_19">
      <!-- 0.6 -->
      <g transform="translate(12.379764 82.351296) scale(0.09 -0.09)">
       <defs>
        <path id="ArialMT-36" d="M 3184 3459 
L 2625 3416 
Q 2550 3747 2413 3897 
Q 2184 4138 1850 4138 
Q 1581 4138 1378 3988 
Q 1113 3794 959 3422 
Q 806 3050 800 2363 
Q 1003 2672 1297 2822 
Q 1591 2972 1913 2972 
Q 2475 2972 2870 2558 
Q 3266 2144 3266 1488 
Q 3266 1056 3080 686 
Q 2894 316 2569 119 
Q 2244 -78 1831 -78 
Q 1128 -78 684 439 
Q 241 956 241 2144 
Q 241 3472 731 4075 
Q 1159 4600 1884 4600 
Q 2425 4600 2770 4297 
Q 3116 3994 3184 3459 
z
M 888 1484 
Q 888 1194 1011 928 
Q 1134 663 1356 523 
Q 1578 384 1822 384 
Q 2178 384 2434 671 
Q 2691 959 2691 1453 
Q 2691 1928 2437 2201 
Q 2184 2475 1800 2475 
Q 1419 2475 1153 2201 
Q 888 1928 888 1484 
z
" transform="scale(0.015625)"/>
       </defs>
       <use xlink:href="#ArialMT-30"/>
       <use xlink:href="#ArialMT-2e" x="55.615234"/>
       <use xlink:href="#ArialMT-36" x="83.398438"/>
      </g>
     </g>
    </g>
    <g id="ytick_4">
     <g id="line2d_20">
      <g>
       <use xlink:href="#mdc795d31b0" x="31.889764" y="47.656862" style="stroke: #000000; stroke-width: 0.8"/>
      </g>
     </g>
     <g id="text_20">
      <!-- 0.8 -->
      <g transform="translate(12.379764 50.877878) scale(0.09 -0.09)">
       <defs>
        <path id="ArialMT-38" d="M 1131 2484 
Q 781 2613 612 2850 
Q 444 3088 444 3419 
Q 444 3919 803 4259 
Q 1163 4600 1759 4600 
Q 2359 4600 2725 4251 
Q 3091 3903 3091 3403 
Q 3091 3084 2923 2848 
Q 2756 2613 2416 2484 
Q 2838 2347 3058 2040 
Q 3278 1734 3278 1309 
Q 3278 722 2862 322 
Q 2447 -78 1769 -78 
Q 1091 -78 675 323 
Q 259 725 259 1325 
Q 259 1772 486 2073 
Q 713 2375 1131 2484 
z
M 1019 3438 
Q 1019 3113 1228 2906 
Q 1438 2700 1772 2700 
Q 2097 2700 2305 2904 
Q 2513 3109 2513 3406 
Q 2513 3716 2298 3927 
Q 2084 4138 1766 4138 
Q 1444 4138 1231 3931 
Q 1019 3725 1019 3438 
z
M 838 1322 
Q 838 1081 952 856 
Q 1066 631 1291 507 
Q 1516 384 1775 384 
Q 2178 384 2440 643 
Q 2703 903 2703 1303 
Q 2703 1709 2433 1975 
Q 2163 2241 1756 2241 
Q 1359 2241 1098 1978 
Q 838 1716 838 1322 
z
" transform="scale(0.015625)"/>
       </defs>
       <use xlink:href="#ArialMT-30"/>
       <use xlink:href="#ArialMT-2e" x="55.615234"/>
       <use xlink:href="#ArialMT-38" x="83.398438"/>
      </g>
     </g>
    </g>
    <g id="text_21">
     <!-- Classification Score -->
     <g transform="translate(6.591014 125.403983) rotate(-90) scale(0.09 -0.09)">
      <defs>
       <path id="ArialMT-66" d="M 556 0 
L 556 2881 
L 59 2881 
L 59 3319 
L 556 3319 
L 556 3672 
Q 556 4006 616 4169 
Q 697 4388 901 4523 
Q 1106 4659 1475 4659 
Q 1713 4659 2000 4603 
L 1916 4113 
Q 1741 4144 1584 4144 
Q 1328 4144 1222 4034 
Q 1116 3925 1116 3625 
L 1116 3319 
L 1763 3319 
L 1763 2881 
L 1116 2881 
L 1116 0 
L 556 0 
z
" transform="scale(0.015625)"/>
       <path id="ArialMT-20" transform="scale(0.015625)"/>
       <path id="ArialMT-72" d="M 416 0 
L 416 3319 
L 922 3319 
L 922 2816 
Q 1116 3169 1280 3281 
Q 1444 3394 1641 3394 
Q 1925 3394 2219 3213 
L 2025 2691 
Q 1819 2813 1613 2813 
Q 1428 2813 1281 2702 
Q 1134 2591 1072 2394 
Q 978 2094 978 1738 
L 978 0 
L 416 0 
z
" transform="scale(0.015625)"/>
      </defs>
      <use xlink:href="#ArialMT-43"/>
      <use xlink:href="#ArialMT-6c" x="72.216797"/>
      <use xlink:href="#ArialMT-61" x="94.433594"/>
      <use xlink:href="#ArialMT-73" x="150.048828"/>
      <use xlink:href="#ArialMT-73" x="200.048828"/>
      <use xlink:href="#ArialMT-69" x="250.048828"/>
      <use xlink:href="#ArialMT-66" x="272.265625"/>
      <use xlink:href="#ArialMT-69" x="300.048828"/>
      <use xlink:href="#ArialMT-63" x="322.265625"/>
      <use xlink:href="#ArialMT-61" x="372.265625"/>
      <use xlink:href="#ArialMT-74" x="427.880859"/>
      <use xlink:href="#ArialMT-69" x="455.664062"/>
      <use xlink:href="#ArialMT-6f" x="477.880859"/>
      <use xlink:href="#ArialMT-6e" x="533.496094"/>
      <use xlink:href="#ArialMT-20" x="589.111328"/>
      <use xlink:href="#ArialMT-53" x="616.894531"/>
      <use xlink:href="#ArialMT-63" x="683.59375"/>
      <use xlink:href="#ArialMT-6f" x="733.59375"/>
      <use xlink:href="#ArialMT-72" x="789.208984"/>
      <use xlink:href="#ArialMT-65" x="822.509766"/>
     </g>
    </g>
   </g>
   <g id="line2d_21">
    <path d="M 31.889764 79.13028 
L 229.606299 79.13028 
" clip-path="url(#p63e55dea49)" style="fill: none; stroke-dasharray: 5.55,2.4; stroke-dashoffset: 0; stroke: #000000; stroke-width: 1.5"/>
   </g>
   <g id="patch_3">
    <path d="M 31.889764 151.370079 
L 31.889764 20.409449 
" style="fill: none; stroke: #000000; stroke-width: 0.8; stroke-linejoin: miter; stroke-linecap: square"/>
   </g>
   <g id="patch_4">
    <path d="M 229.606299 151.370079 
L 229.606299 20.409449 
" style="fill: none; stroke: #000000; stroke-width: 0.8; stroke-linejoin: miter; stroke-linecap: square"/>
   </g>
   <g id="patch_5">
    <path d="M 31.889764 151.370079 
L 229.606299 151.370079 
" style="fill: none; stroke: #000000; stroke-width: 0.8; stroke-linejoin: miter; stroke-linecap: square"/>
   </g>
   <g id="patch_6">
    <path d="M 31.889764 20.409449 
L 229.606299 20.409449 
" style="fill: none; stroke: #000000; stroke-width: 0.8; stroke-linejoin: miter; stroke-linecap: square"/>
   </g>
   <g id="PathCollection_1">
    <defs>
     <path id="me40feb4b51" d="M 0 2 
C 0.530406 2 1.03916 1.789267 1.414214 1.414214 
C 1.789267 1.03916 2 0.530406 2 0 
C 2 -0.530406 1.789267 -1.03916 1.414214 -1.414214 
C 1.03916 -1.789267 0.530406 -2 0 -2 
C -0.530406 -2 -1.03916 -1.789267 -1.414214 -1.414214 
C -1.789267 -1.03916 -2 -0.530406 -2 0 
C -2 0.530406 -1.789267 1.03916 -1.414214 1.414214 
C -1.03916 1.789267 -0.530406 2 0 2 
z
"/>
    </defs>
    <g clip-path="url(#p63e55dea49)">
     <use xlink:href="#me40feb4b51" x="38.079413" y="44.94757" style="fill: #808080"/>
     <use xlink:href="#me40feb4b51" x="36.84458" y="45.53965" style="fill: #808080"/>
     <use xlink:href="#me40feb4b51" x="36.986769" y="35.422179" style="fill: #808080"/>
     <use xlink:href="#me40feb4b51" x="36.868928" y="34.432656" style="fill: #808080"/>
     <use xlink:href="#me40feb4b51" x="38.910813" y="43.344734" style="fill: #808080"/>
     <use xlink:href="#me40feb4b51" x="37.604264" y="46.443547" style="fill: #808080"/>
     <use xlink:href="#me40feb4b51" x="38.404511" y="58.12227" style="fill: #808080"/>
     <use xlink:href="#me40feb4b51" x="37.28492" y="55.086284" style="fill: #808080"/>
     <use xlink:href="#me40feb4b51" x="38.087666" y="71.276903" style="fill: #808080"/>
     <use xlink:href="#me40feb4b51" x="37.099164" y="91.820721" style="fill: #808080"/>
    </g>
   </g>
   <g id="PathCollection_2">
    <g clip-path="url(#p63e55dea49)">
     <use xlink:href="#me40feb4b51" x="51.315455" y="55.559446" style="fill: #808080"/>
     <use xlink:href="#me40feb4b51" x="51.561193" y="43.946176" style="fill: #808080"/>
     <use xlink:href="#me40feb4b51" x="51.560476" y="37.720528" style="fill: #808080"/>
     <use xlink:href="#me40feb4b51" x="49.687131" y="40.273163" style="fill: #808080"/>
     <use xlink:href="#me40feb4b51" x="51.117987" y="75.101115" style="fill: #808080"/>
     <use xlink:href="#me40feb4b51" x="51.655084" y="33.266726" style="fill: #808080"/>
     <use xlink:href="#me40feb4b51" x="50.081314" y="40.481129" style="fill: #808080"/>
     <use xlink:href="#me40feb4b51" x="51.308794" y="64.077403" style="fill: #808080"/>
     <use xlink:href="#me40feb4b51" x="50.472458" y="77.158244" style="fill: #808080"/>
     <use xlink:href="#me40feb4b51" x="49.525727" y="50.132366" style="fill: #808080"/>
    </g>
   </g>
   <g id="PathCollection_3">
    <g clip-path="url(#p63e55dea49)">
     <use xlink:href="#me40feb4b51" x="62.107555" y="54.357091" style="fill: #808080"/>
     <use xlink:href="#me40feb4b51" x="63.904164" y="78.781466" style="fill: #808080"/>
     <use xlink:href="#me40feb4b51" x="63.815741" y="56.553486" style="fill: #808080"/>
     <use xlink:href="#me40feb4b51" x="62.083153" y="44.149041" style="fill: #808080"/>
     <use xlink:href="#me40feb4b51" x="63.588797" y="48.610084" style="fill: #808080"/>
     <use xlink:href="#me40feb4b51" x="62.43146" y="27.760823" style="fill: #808080"/>
     <use xlink:href="#me40feb4b51" x="64.018657" y="49.616693" style="fill: #808080"/>
     <use xlink:href="#me40feb4b51" x="61.575442" y="44.509964" style="fill: #808080"/>
     <use xlink:href="#me40feb4b51" x="63.334149" y="40.646392" style="fill: #808080"/>
     <use xlink:href="#me40feb4b51" x="61.563835" y="41.368567" style="fill: #808080"/>
    </g>
   </g>
   <g id="PathCollection_4">
    <g clip-path="url(#p63e55dea49)">
     <use xlink:href="#me40feb4b51" x="75.879084" y="42.906667" style="fill: #808080"/>
     <use xlink:href="#me40feb4b51" x="74.595176" y="58.690112" style="fill: #808080"/>
     <use xlink:href="#me40feb4b51" x="75.526171" y="59.761151" style="fill: #808080"/>
     <use xlink:href="#me40feb4b51" x="74.216624" y="50.298594" style="fill: #808080"/>
     <use xlink:href="#me40feb4b51" x="74.799821" y="63.821151" style="fill: #808080"/>
     <use xlink:href="#me40feb4b51" x="76.016568" y="26.362205" style="fill: #808080"/>
     <use xlink:href="#me40feb4b51" x="76.036796" y="44.237785" style="fill: #808080"/>
     <use xlink:href="#me40feb4b51" x="75.429736" y="43.589605" style="fill: #808080"/>
     <use xlink:href="#me40feb4b51" x="74.698919" y="53.721323" style="fill: #808080"/>
     <use xlink:href="#me40feb4b51" x="74.686536" y="39.936756" style="fill: #808080"/>
    </g>
   </g>
   <g id="PathCollection_5">
    <g clip-path="url(#p63e55dea49)">
     <use xlink:href="#me40feb4b51" x="87.144846" y="37.40309" style="fill: #808080"/>
     <use xlink:href="#me40feb4b51" x="88.290826" y="56.176217" style="fill: #808080"/>
     <use xlink:href="#me40feb4b51" x="88.61095" y="45.384995" style="fill: #808080"/>
     <use xlink:href="#me40feb4b51" x="86.305709" y="37.905776" style="fill: #808080"/>
     <use xlink:href="#me40feb4b51" x="88.408669" y="45.171904" style="fill: #808080"/>
     <use xlink:href="#me40feb4b51" x="86.314269" y="47.571212" style="fill: #808080"/>
     <use xlink:href="#me40feb4b51" x="87.239701" y="35.258256" style="fill: #808080"/>
     <use xlink:href="#me40feb4b51" x="87.248897" y="66.773769" style="fill: #808080"/>
     <use xlink:href="#me40feb4b51" x="88.099678" y="33.684366" style="fill: #808080"/>
     <use xlink:href="#me40feb4b51" x="88.211349" y="59.502301" style="fill: #808080"/>
    </g>
   </g>
   <g id="PathCollection_6">
    <g clip-path="url(#p63e55dea49)">
     <use xlink:href="#me40feb4b51" x="99.334172" y="68.240328" style="fill: #808080"/>
     <use xlink:href="#me40feb4b51" x="99.662731" y="133.524613" style="fill: #808080"/>
     <use xlink:href="#me40feb4b51" x="99.628892" y="129.335936" style="fill: #808080"/>
     <use xlink:href="#me40feb4b51" x="100.002182" y="139.039879" style="fill: #808080"/>
     <use xlink:href="#me40feb4b51" x="99.441943" y="134.887226" style="fill: #808080"/>
     <use xlink:href="#me40feb4b51" x="99.619774" y="71.160307" style="fill: #808080"/>
     <use xlink:href="#me40feb4b51" x="99.271033" y="82.892934" style="fill: #808080"/>
     <use xlink:href="#me40feb4b51" x="99.920453" y="82.497115" style="fill: #808080"/>
     <use xlink:href="#me40feb4b51" x="99.049931" y="98.53473" style="fill: #808080"/>
     <use xlink:href="#me40feb4b51" x="99.246869" y="73.003648" style="fill: #808080"/>
    </g>
   </g>
   <g id="PathCollection_7">
    <g clip-path="url(#p63e55dea49)">
     <use xlink:href="#me40feb4b51" x="111.72245" y="48.083058" style="fill: #808080"/>
     <use xlink:href="#me40feb4b51" x="112.884805" y="41.389314" style="fill: #808080"/>
     <use xlink:href="#me40feb4b51" x="112.725511" y="85.450103" style="fill: #808080"/>
     <use xlink:href="#me40feb4b51" x="112.098064" y="87.815958" style="fill: #808080"/>
     <use xlink:href="#me40feb4b51" x="112.766132" y="58.60962" style="fill: #808080"/>
     <use xlink:href="#me40feb4b51" x="111.78235" y="51.440821" style="fill: #808080"/>
     <use xlink:href="#me40feb4b51" x="111.764299" y="100.122449" style="fill: #808080"/>
     <use xlink:href="#me40feb4b51" x="111.723525" y="48.597072" style="fill: #808080"/>
     <use xlink:href="#me40feb4b51" x="111.654856" y="39.9505" style="fill: #808080"/>
     <use xlink:href="#me40feb4b51" x="112.131013" y="49.34379" style="fill: #808080"/>
    </g>
   </g>
   <g id="PathCollection_8">
    <g clip-path="url(#p63e55dea49)">
     <use xlink:href="#me40feb4b51" x="124.670866" y="57.085137" style="fill: #808080"/>
     <use xlink:href="#me40feb4b51" x="125.66995" y="62.759637" style="fill: #808080"/>
     <use xlink:href="#me40feb4b51" x="125.139901" y="79.497093" style="fill: #808080"/>
     <use xlink:href="#me40feb4b51" x="123.67074" y="72.079136" style="fill: #808080"/>
     <use xlink:href="#me40feb4b51" x="123.686407" y="130.177185" style="fill: #808080"/>
     <use xlink:href="#me40feb4b51" x="123.679269" y="81.283495" style="fill: #808080"/>
     <use xlink:href="#me40feb4b51" x="125.137726" y="70.070397" style="fill: #808080"/>
     <use xlink:href="#me40feb4b51" x="125.751976" y="71.816392" style="fill: #808080"/>
     <use xlink:href="#me40feb4b51" x="124.150459" y="96.84688" style="fill: #808080"/>
     <use xlink:href="#me40feb4b51" x="125.145165" y="67.059344" style="fill: #808080"/>
    </g>
   </g>
   <g id="PathCollection_9">
    <g clip-path="url(#p63e55dea49)">
     <use xlink:href="#me40feb4b51" x="137.292214" y="83.635497" style="fill: #808080"/>
     <use xlink:href="#me40feb4b51" x="136.649353" y="59.062992" style="fill: #808080"/>
     <use xlink:href="#me40feb4b51" x="136.556487" y="59.736959" style="fill: #808080"/>
     <use xlink:href="#me40feb4b51" x="137.767122" y="60.778288" style="fill: #808080"/>
     <use xlink:href="#me40feb4b51" x="136.108384" y="47.639033" style="fill: #808080"/>
     <use xlink:href="#me40feb4b51" x="135.979247" y="82.107936" style="fill: #808080"/>
     <use xlink:href="#me40feb4b51" x="137.272335" y="83.784611" style="fill: #808080"/>
     <use xlink:href="#me40feb4b51" x="136.913087" y="56.5363" style="fill: #808080"/>
     <use xlink:href="#me40feb4b51" x="137.767539" y="47.928429" style="fill: #808080"/>
     <use xlink:href="#me40feb4b51" x="137.240016" y="65.932878" style="fill: #808080"/>
    </g>
   </g>
   <g id="PathCollection_10">
    <g clip-path="url(#p63e55dea49)">
     <use xlink:href="#me40feb4b51" x="148.666688" y="65.434337" style="fill: #808080"/>
     <use xlink:href="#me40feb4b51" x="149.914121" y="79.425087" style="fill: #808080"/>
     <use xlink:href="#me40feb4b51" x="149.37636" y="100.82581" style="fill: #808080"/>
     <use xlink:href="#me40feb4b51" x="150.518643" y="91.242647" style="fill: #808080"/>
     <use xlink:href="#me40feb4b51" x="149.032283" y="73.703307" style="fill: #808080"/>
     <use xlink:href="#me40feb4b51" x="150.325453" y="89.969034" style="fill: #808080"/>
     <use xlink:href="#me40feb4b51" x="150.357508" y="110.904829" style="fill: #808080"/>
     <use xlink:href="#me40feb4b51" x="148.427364" y="82.54581" style="fill: #808080"/>
     <use xlink:href="#me40feb4b51" x="149.227924" y="83.552266" style="fill: #808080"/>
     <use xlink:href="#me40feb4b51" x="149.59934" y="73.309571" style="fill: #808080"/>
    </g>
   </g>
   <g id="PathCollection_11">
    <g clip-path="url(#p63e55dea49)">
     <use xlink:href="#me40feb4b51" x="161.780897" y="145.417323" style="fill: #808080"/>
     <use xlink:href="#me40feb4b51" x="160.890209" y="58.326372" style="fill: #808080"/>
     <use xlink:href="#me40feb4b51" x="162.151567" y="55.223048" style="fill: #808080"/>
     <use xlink:href="#me40feb4b51" x="161.363894" y="49.749567" style="fill: #808080"/>
     <use xlink:href="#me40feb4b51" x="160.460256" y="39.373798" style="fill: #808080"/>
     <use xlink:href="#me40feb4b51" x="160.909516" y="64.95142" style="fill: #808080"/>
     <use xlink:href="#me40feb4b51" x="160.760885" y="49.653435" style="fill: #808080"/>
     <use xlink:href="#me40feb4b51" x="162.253967" y="81.407862" style="fill: #808080"/>
     <use xlink:href="#me40feb4b51" x="161.891574" y="34.910851" style="fill: #808080"/>
     <use xlink:href="#me40feb4b51" x="161.080692" y="47.712962" style="fill: #808080"/>
    </g>
   </g>
   <g id="PathCollection_12">
    <g clip-path="url(#p63e55dea49)">
     <use xlink:href="#me40feb4b51" x="174.441636" y="44.969313" style="fill: #808080"/>
     <use xlink:href="#me40feb4b51" x="174.542043" y="51.996912" style="fill: #808080"/>
     <use xlink:href="#me40feb4b51" x="175.138338" y="32.950919" style="fill: #808080"/>
     <use xlink:href="#me40feb4b51" x="175.102236" y="33.6439" style="fill: #808080"/>
     <use xlink:href="#me40feb4b51" x="174.40775" y="46.150512" style="fill: #808080"/>
     <use xlink:href="#me40feb4b51" x="174.896311" y="58.290161" style="fill: #808080"/>
     <use xlink:href="#me40feb4b51" x="173.141272" y="66.912838" style="fill: #808080"/>
     <use xlink:href="#me40feb4b51" x="174.490624" y="62.885513" style="fill: #808080"/>
     <use xlink:href="#me40feb4b51" x="174.840461" y="41.947363" style="fill: #808080"/>
     <use xlink:href="#me40feb4b51" x="172.934014" y="37.479044" style="fill: #808080"/>
    </g>
   </g>
   <g id="PathCollection_13">
    <g clip-path="url(#p63e55dea49)">
     <use xlink:href="#me40feb4b51" x="186.795205" y="52.663898" style="fill: #808080"/>
     <use xlink:href="#me40feb4b51" x="185.343544" y="59.952109" style="fill: #808080"/>
     <use xlink:href="#me40feb4b51" x="185.60635" y="56.537296" style="fill: #808080"/>
     <use xlink:href="#me40feb4b51" x="185.963661" y="45.514241" style="fill: #808080"/>
     <use xlink:href="#me40feb4b51" x="187.585032" y="59.013477" style="fill: #808080"/>
     <use xlink:href="#me40feb4b51" x="187.585537" y="89.719179" style="fill: #808080"/>
     <use xlink:href="#me40feb4b51" x="185.97556" y="51.069258" style="fill: #808080"/>
     <use xlink:href="#me40feb4b51" x="186.969873" y="67.565794" style="fill: #808080"/>
     <use xlink:href="#me40feb4b51" x="185.491632" y="33.02855" style="fill: #808080"/>
     <use xlink:href="#me40feb4b51" x="185.435998" y="67.682327" style="fill: #808080"/>
    </g>
   </g>
   <g id="PathCollection_14">
    <g clip-path="url(#p63e55dea49)">
     <use xlink:href="#me40feb4b51" x="198.938092" y="46.245058" style="fill: #808080"/>
     <use xlink:href="#me40feb4b51" x="199.211724" y="46.984603" style="fill: #808080"/>
     <use xlink:href="#me40feb4b51" x="198.681657" y="41.194756" style="fill: #808080"/>
     <use xlink:href="#me40feb4b51" x="199.530913" y="42.525528" style="fill: #808080"/>
     <use xlink:href="#me40feb4b51" x="199.383911" y="60.805638" style="fill: #808080"/>
     <use xlink:href="#me40feb4b51" x="199.611557" y="74.971697" style="fill: #808080"/>
     <use xlink:href="#me40feb4b51" x="198.577982" y="51.400132" style="fill: #808080"/>
     <use xlink:href="#me40feb4b51" x="198.661502" y="80.694897" style="fill: #808080"/>
     <use xlink:href="#me40feb4b51" x="199.69558" y="44.694811" style="fill: #808080"/>
     <use xlink:href="#me40feb4b51" x="197.760748" y="31.790279" style="fill: #808080"/>
    </g>
   </g>
   <g id="PathCollection_15">
    <g clip-path="url(#p63e55dea49)">
     <use xlink:href="#me40feb4b51" x="210.04805" y="65.898449" style="fill: #808080"/>
     <use xlink:href="#me40feb4b51" x="212.198723" y="79.237345" style="fill: #808080"/>
     <use xlink:href="#me40feb4b51" x="209.899022" y="43.205543" style="fill: #808080"/>
     <use xlink:href="#me40feb4b51" x="210.908671" y="40.640398" style="fill: #808080"/>
     <use xlink:href="#me40feb4b51" x="210.979726" y="47.6225" style="fill: #808080"/>
     <use xlink:href="#me40feb4b51" x="210.125707" y="98.313517" style="fill: #808080"/>
     <use xlink:href="#me40feb4b51" x="212.187014" y="59.719951" style="fill: #808080"/>
     <use xlink:href="#me40feb4b51" x="210.518433" y="40.239576" style="fill: #808080"/>
     <use xlink:href="#me40feb4b51" x="210.509611" y="67.250344" style="fill: #808080"/>
     <use xlink:href="#me40feb4b51" x="211.134423" y="50.56159" style="fill: #808080"/>
    </g>
   </g>
   <g id="PathCollection_16">
    <g clip-path="url(#p63e55dea49)">
     <use xlink:href="#me40feb4b51" x="222.97551" y="53.445075" style="fill: #808080"/>
     <use xlink:href="#me40feb4b51" x="222.913527" y="52.304708" style="fill: #808080"/>
     <use xlink:href="#me40feb4b51" x="224.089227" y="48.360668" style="fill: #808080"/>
     <use xlink:href="#me40feb4b51" x="222.244506" y="50.931488" style="fill: #808080"/>
     <use xlink:href="#me40feb4b51" x="222.994989" y="44.572483" style="fill: #808080"/>
     <use xlink:href="#me40feb4b51" x="223.746634" y="105.952166" style="fill: #808080"/>
     <use xlink:href="#me40feb4b51" x="223.307786" y="48.369611" style="fill: #808080"/>
     <use xlink:href="#me40feb4b51" x="223.129261" y="48.37976" style="fill: #808080"/>
     <use xlink:href="#me40feb4b51" x="223.525675" y="39.154327" style="fill: #808080"/>
     <use xlink:href="#me40feb4b51" x="223.752544" y="35.40989" style="fill: #808080"/>
    </g>
   </g>
   <g id="PathCollection_17">
    <defs>
     <path id="m193dc6840c" d="M 0 3 
C 0.795609 3 1.55874 2.683901 2.12132 2.12132 
C 2.683901 1.55874 3 0.795609 3 0 
C 3 -0.795609 2.683901 -1.55874 2.12132 -2.12132 
C 1.55874 -2.683901 0.795609 -3 0 -3 
C -0.795609 -3 -1.55874 -2.683901 -2.12132 -2.12132 
C -2.683901 -1.55874 -3 -0.795609 -3 0 
C -3 0.795609 -2.683901 1.55874 -2.12132 2.12132 
C -1.55874 2.683901 -0.795609 3 0 3 
z
"/>
    </defs>
    <g clip-path="url(#p63e55dea49)">
     <use xlink:href="#m193dc6840c" x="38.068406" y="52.643651"/>
    </g>
   </g>
   <g id="PathCollection_18">
    <g clip-path="url(#p63e55dea49)">
     <use xlink:href="#m193dc6840c" x="50.425689" y="51.77163"/>
    </g>
   </g>
   <g id="PathCollection_19">
    <g clip-path="url(#p63e55dea49)">
     <use xlink:href="#m193dc6840c" x="62.782972" y="48.635361"/>
    </g>
   </g>
   <g id="PathCollection_20">
    <g clip-path="url(#p63e55dea49)">
     <use xlink:href="#m193dc6840c" x="75.140256" y="48.332535"/>
    </g>
   </g>
   <g id="PathCollection_21">
    <g clip-path="url(#p63e55dea49)">
     <use xlink:href="#m193dc6840c" x="87.497539" y="46.483189"/>
    </g>
   </g>
   <g id="PathCollection_22">
    <g clip-path="url(#p63e55dea49)">
     <use xlink:href="#m193dc6840c" x="99.854823" y="101.311672"/>
    </g>
   </g>
   <g id="PathCollection_23">
    <g clip-path="url(#p63e55dea49)">
     <use xlink:href="#m193dc6840c" x="112.212106" y="61.080269"/>
    </g>
   </g>
   <g id="PathCollection_24">
    <g clip-path="url(#p63e55dea49)">
     <use xlink:href="#m193dc6840c" x="124.56939" y="78.86747"/>
    </g>
   </g>
   <g id="PathCollection_25">
    <g clip-path="url(#p63e55dea49)">
     <use xlink:href="#m193dc6840c" x="136.926673" y="64.714292"/>
    </g>
   </g>
   <g id="PathCollection_26">
    <g clip-path="url(#p63e55dea49)">
     <use xlink:href="#m193dc6840c" x="149.283957" y="85.09127"/>
    </g>
   </g>
   <g id="PathCollection_27">
    <g clip-path="url(#p63e55dea49)">
     <use xlink:href="#m193dc6840c" x="161.64124" y="62.672664"/>
    </g>
   </g>
   <g id="PathCollection_28">
    <g clip-path="url(#p63e55dea49)">
     <use xlink:href="#m193dc6840c" x="173.998524" y="47.722648"/>
    </g>
   </g>
   <g id="PathCollection_29">
    <g clip-path="url(#p63e55dea49)">
     <use xlink:href="#m193dc6840c" x="186.355807" y="58.274613"/>
    </g>
   </g>
   <g id="PathCollection_30">
    <g clip-path="url(#p63e55dea49)">
     <use xlink:href="#m193dc6840c" x="198.713091" y="52.13074"/>
    </g>
   </g>
   <g id="PathCollection_31">
    <g clip-path="url(#p63e55dea49)">
     <use xlink:href="#m193dc6840c" x="211.070374" y="59.268921"/>
    </g>
   </g>
   <g id="PathCollection_32">
    <g clip-path="url(#p63e55dea49)">
     <use xlink:href="#m193dc6840c" x="223.427657" y="52.688018"/>
    </g>
   </g>
   <g id="PathCollection_33">
    <defs>
     <path id="mc9dd04f5dd" d="M 3.5 0 
L -3.5 -3.5 
L -3.5 3.5 
z
"/>
    </defs>
    <g clip-path="url(#p63e55dea49)">
     <use xlink:href="#mc9dd04f5dd" x="38.068406" y="46.443547" style="fill: #ffa500"/>
    </g>
   </g>
   <g id="PathCollection_34">
    <g clip-path="url(#p63e55dea49)">
     <use xlink:href="#mc9dd04f5dd" x="50.425689" y="33.266726" style="fill: #ffa500"/>
    </g>
   </g>
   <g id="PathCollection_35">
    <g clip-path="url(#p63e55dea49)">
     <use xlink:href="#mc9dd04f5dd" x="62.782972" y="27.760823" style="fill: #ffa500"/>
    </g>
   </g>
   <g id="PathCollection_36">
    <g clip-path="url(#p63e55dea49)">
     <use xlink:href="#mc9dd04f5dd" x="75.140256" y="26.362205" style="fill: #ffa500"/>
    </g>
   </g>
   <g id="PathCollection_37">
    <g clip-path="url(#p63e55dea49)">
     <use xlink:href="#mc9dd04f5dd" x="87.497539" y="47.571212" style="fill: #ffa500"/>
    </g>
   </g>
   <g id="PathCollection_38">
    <g clip-path="url(#p63e55dea49)">
     <use xlink:href="#mc9dd04f5dd" x="99.854823" y="71.160307" style="fill: #ffa500"/>
    </g>
   </g>
   <g id="PathCollection_39">
    <g clip-path="url(#p63e55dea49)">
     <use xlink:href="#mc9dd04f5dd" x="112.212106" y="51.440821" style="fill: #ffa500"/>
    </g>
   </g>
   <g id="PathCollection_40">
    <g clip-path="url(#p63e55dea49)">
     <use xlink:href="#mc9dd04f5dd" x="124.56939" y="81.283495" style="fill: #ffa500"/>
    </g>
   </g>
   <g id="PathCollection_41">
    <g clip-path="url(#p63e55dea49)">
     <use xlink:href="#mc9dd04f5dd" x="136.926673" y="82.107936" style="fill: #ffa500"/>
    </g>
   </g>
   <g id="PathCollection_42">
    <g clip-path="url(#p63e55dea49)">
     <use xlink:href="#mc9dd04f5dd" x="149.283957" y="89.969034" style="fill: #ffa500"/>
    </g>
   </g>
   <g id="PathCollection_43">
    <g clip-path="url(#p63e55dea49)">
     <use xlink:href="#mc9dd04f5dd" x="161.64124" y="64.95142" style="fill: #ffa500"/>
    </g>
   </g>
   <g id="PathCollection_44">
    <g clip-path="url(#p63e55dea49)">
     <use xlink:href="#mc9dd04f5dd" x="173.998524" y="58.290161" style="fill: #ffa500"/>
    </g>
   </g>
   <g id="PathCollection_45">
    <g clip-path="url(#p63e55dea49)">
     <use xlink:href="#mc9dd04f5dd" x="186.355807" y="89.719179" style="fill: #ffa500"/>
    </g>
   </g>
   <g id="PathCollection_46">
    <g clip-path="url(#p63e55dea49)">
     <use xlink:href="#mc9dd04f5dd" x="198.713091" y="74.971697" style="fill: #ffa500"/>
    </g>
   </g>
   <g id="PathCollection_47">
    <g clip-path="url(#p63e55dea49)">
     <use xlink:href="#mc9dd04f5dd" x="211.070374" y="98.313517" style="fill: #ffa500"/>
    </g>
   </g>
   <g id="PathCollection_48">
    <g clip-path="url(#p63e55dea49)">
     <use xlink:href="#mc9dd04f5dd" x="223.427657" y="105.952166" style="fill: #ffa500"/>
    </g>
   </g>
   <g id="PathCollection_49">
    <defs>
     <path id="m3988e4fb85" d="M -3.5 -0 
L 3.5 3.5 
L 3.5 -3.5 
z
"/>
    </defs>
    <g clip-path="url(#p63e55dea49)">
     <use xlink:href="#m3988e4fb85" x="38.068406" y="91.820721" style="fill: #0000ff"/>
    </g>
   </g>
   <g id="PathCollection_50">
    <g clip-path="url(#p63e55dea49)">
     <use xlink:href="#m3988e4fb85" x="50.425689" y="50.132366" style="fill: #0000ff"/>
    </g>
   </g>
   <g id="PathCollection_51">
    <g clip-path="url(#p63e55dea49)">
     <use xlink:href="#m3988e4fb85" x="62.782972" y="41.368567" style="fill: #0000ff"/>
    </g>
   </g>
   <g id="PathCollection_52">
    <g clip-path="url(#p63e55dea49)">
     <use xlink:href="#m3988e4fb85" x="75.140256" y="39.936756" style="fill: #0000ff"/>
    </g>
   </g>
   <g id="PathCollection_53">
    <g clip-path="url(#p63e55dea49)">
     <use xlink:href="#m3988e4fb85" x="87.497539" y="59.502301" style="fill: #0000ff"/>
    </g>
   </g>
   <g id="PathCollection_54">
    <g clip-path="url(#p63e55dea49)">
     <use xlink:href="#m3988e4fb85" x="99.854823" y="73.003648" style="fill: #0000ff"/>
    </g>
   </g>
   <g id="PathCollection_55">
    <g clip-path="url(#p63e55dea49)">
     <use xlink:href="#m3988e4fb85" x="112.212106" y="49.34379" style="fill: #0000ff"/>
    </g>
   </g>
   <g id="PathCollection_56">
    <g clip-path="url(#p63e55dea49)">
     <use xlink:href="#m3988e4fb85" x="124.56939" y="67.059344" style="fill: #0000ff"/>
    </g>
   </g>
   <g id="PathCollection_57">
    <g clip-path="url(#p63e55dea49)">
     <use xlink:href="#m3988e4fb85" x="136.926673" y="65.932878" style="fill: #0000ff"/>
    </g>
   </g>
   <g id="PathCollection_58">
    <g clip-path="url(#p63e55dea49)">
     <use xlink:href="#m3988e4fb85" x="149.283957" y="73.309571" style="fill: #0000ff"/>
    </g>
   </g>
   <g id="PathCollection_59">
    <g clip-path="url(#p63e55dea49)">
     <use xlink:href="#m3988e4fb85" x="161.64124" y="47.712962" style="fill: #0000ff"/>
    </g>
   </g>
   <g id="PathCollection_60">
    <g clip-path="url(#p63e55dea49)">
     <use xlink:href="#m3988e4fb85" x="173.998524" y="37.479044" style="fill: #0000ff"/>
    </g>
   </g>
   <g id="PathCollection_61">
    <g clip-path="url(#p63e55dea49)">
     <use xlink:href="#m3988e4fb85" x="186.355807" y="67.682327" style="fill: #0000ff"/>
    </g>
   </g>
   <g id="PathCollection_62">
    <g clip-path="url(#p63e55dea49)">
     <use xlink:href="#m3988e4fb85" x="198.713091" y="31.790279" style="fill: #0000ff"/>
    </g>
   </g>
   <g id="PathCollection_63">
    <g clip-path="url(#p63e55dea49)">
     <use xlink:href="#m3988e4fb85" x="211.070374" y="50.56159" style="fill: #0000ff"/>
    </g>
   </g>
   <g id="PathCollection_64">
    <g clip-path="url(#p63e55dea49)">
     <use xlink:href="#m3988e4fb85" x="223.427657" y="35.40989" style="fill: #0000ff"/>
    </g>
   </g>
  </g>
 </g>
 <defs>
  <clipPath id="p63e55dea49">
   <rect x="31.889764" y="20.409449" width="197.716535" height="130.96063"/>
  </clipPath>
 </defs>
</svg>
