<?xml version="1.0" encoding="utf-8" standalone="no"?>
<!DOCTYPE svg PUBLIC "-//W3C//DTD SVG 1.1//EN"
  "http://www.w3.org/Graphics/SVG/1.1/DTD/svg11.dtd">
<svg xmlns:xlink="http://www.w3.org/1999/xlink" width="255.11811pt" height="255.11811pt" viewBox="0 0 255.11811 255.11811" xmlns="http://www.w3.org/2000/svg" version="1.1">
 <metadata>
  <rdf:RDF xmlns:dc="http://purl.org/dc/elements/1.1/" xmlns:cc="http://creativecommons.org/ns#" xmlns:rdf="http://www.w3.org/1999/02/22-rdf-syntax-ns#">
   <cc:Work>
    <dc:type rdf:resource="http://purl.org/dc/dcmitype/StillImage"/>
    <dc:date>2024-10-31T10:49:04.775975</dc:date>
    <dc:format>image/svg+xml</dc:format>
    <dc:creator>
     <cc:Agent>
      <dc:title>Matplotlib v3.9.0, https://matplotlib.org/</dc:title>
     </cc:Agent>
    </dc:creator>
   </cc:Work>
  </rdf:RDF>
 </metadata>
 <defs>
  <style type="text/css">*{stroke-linejoin: round; stroke-linecap: butt}</style>
 </defs>
 <g id="figure_1">
  <g id="patch_1">
   <path d="M 0 255.11811 
L 255.11811 255.11811 
L 255.11811 0 
L 0 0 
z
" style="fill: #ffffff"/>
  </g>
  <g id="axes_1">
   <g id="patch_2">
    <path d="M 32.527559 227.055118 
L 228.968504 227.055118 
L 228.968504 30.614173 
L 32.527559 30.614173 
z
" style="fill: #ffffff"/>
   </g>
   <g id="matplotlib.axis_1">
    <g id="xtick_1">
     <g id="line2d_1">
      <defs>
       <path id="m01bb54546f" d="M 0 0 
L 0 3.5 
" style="stroke: #000000; stroke-width: 0.8"/>
      </defs>
      <g>
       <use xlink:href="#m01bb54546f" x="41.456693" y="227.055118" style="stroke: #000000; stroke-width: 0.8"/>
      </g>
     </g>
     <g id="text_1">
      <!-- 0.0 -->
      <g transform="translate(36.591693 239.065587) scale(0.07 -0.07)">
       <defs>
        <path id="ArialMT-30" d="M 266 2259 
Q 266 3072 433 3567 
Q 600 4063 929 4331 
Q 1259 4600 1759 4600 
Q 2128 4600 2406 4451 
Q 2684 4303 2865 4023 
Q 3047 3744 3150 3342 
Q 3253 2941 3253 2259 
Q 3253 1453 3087 958 
Q 2922 463 2592 192 
Q 2263 -78 1759 -78 
Q 1097 -78 719 397 
Q 266 969 266 2259 
z
M 844 2259 
Q 844 1131 1108 757 
Q 1372 384 1759 384 
Q 2147 384 2411 759 
Q 2675 1134 2675 2259 
Q 2675 3391 2411 3762 
Q 2147 4134 1753 4134 
Q 1366 4134 1134 3806 
Q 844 3388 844 2259 
z
" transform="scale(0.015625)"/>
        <path id="ArialMT-2e" d="M 581 0 
L 581 641 
L 1222 641 
L 1222 0 
L 581 0 
z
" transform="scale(0.015625)"/>
       </defs>
       <use xlink:href="#ArialMT-30"/>
       <use xlink:href="#ArialMT-2e" x="55.615234"/>
       <use xlink:href="#ArialMT-30" x="83.398438"/>
      </g>
     </g>
    </g>
    <g id="xtick_2">
     <g id="line2d_2">
      <g>
       <use xlink:href="#m01bb54546f" x="77.173228" y="227.055118" style="stroke: #000000; stroke-width: 0.8"/>
      </g>
     </g>
     <g id="text_2">
      <!-- 0.2 -->
      <g transform="translate(72.308228 239.065587) scale(0.07 -0.07)">
       <defs>
        <path id="ArialMT-32" d="M 3222 541 
L 3222 0 
L 194 0 
Q 188 203 259 391 
Q 375 700 629 1000 
Q 884 1300 1366 1694 
Q 2113 2306 2375 2664 
Q 2638 3022 2638 3341 
Q 2638 3675 2398 3904 
Q 2159 4134 1775 4134 
Q 1369 4134 1125 3890 
Q 881 3647 878 3216 
L 300 3275 
Q 359 3922 746 4261 
Q 1134 4600 1788 4600 
Q 2447 4600 2831 4234 
Q 3216 3869 3216 3328 
Q 3216 3053 3103 2787 
Q 2991 2522 2730 2228 
Q 2469 1934 1863 1422 
Q 1356 997 1212 845 
Q 1069 694 975 541 
L 3222 541 
z
" transform="scale(0.015625)"/>
       </defs>
       <use xlink:href="#ArialMT-30"/>
       <use xlink:href="#ArialMT-2e" x="55.615234"/>
       <use xlink:href="#ArialMT-32" x="83.398438"/>
      </g>
     </g>
    </g>
    <g id="xtick_3">
     <g id="line2d_3">
      <g>
       <use xlink:href="#m01bb54546f" x="112.889764" y="227.055118" style="stroke: #000000; stroke-width: 0.8"/>
      </g>
     </g>
     <g id="text_3">
      <!-- 0.4 -->
      <g transform="translate(108.024764 239.065587) scale(0.07 -0.07)">
       <defs>
        <path id="ArialMT-34" d="M 2069 0 
L 2069 1097 
L 81 1097 
L 81 1613 
L 2172 4581 
L 2631 4581 
L 2631 1613 
L 3250 1613 
L 3250 1097 
L 2631 1097 
L 2631 0 
L 2069 0 
z
M 2069 1613 
L 2069 3678 
L 634 1613 
L 2069 1613 
z
" transform="scale(0.015625)"/>
       </defs>
       <use xlink:href="#ArialMT-30"/>
       <use xlink:href="#ArialMT-2e" x="55.615234"/>
       <use xlink:href="#ArialMT-34" x="83.398438"/>
      </g>
     </g>
    </g>
    <g id="xtick_4">
     <g id="line2d_4">
      <g>
       <use xlink:href="#m01bb54546f" x="148.606299" y="227.055118" style="stroke: #000000; stroke-width: 0.8"/>
      </g>
     </g>
     <g id="text_4">
      <!-- 0.6 -->
      <g transform="translate(143.741299 239.065587) scale(0.07 -0.07)">
       <defs>
        <path id="ArialMT-36" d="M 3184 3459 
L 2625 3416 
Q 2550 3747 2413 3897 
Q 2184 4138 1850 4138 
Q 1581 4138 1378 3988 
Q 1113 3794 959 3422 
Q 806 3050 800 2363 
Q 1003 2672 1297 2822 
Q 1591 2972 1913 2972 
Q 2475 2972 2870 2558 
Q 3266 2144 3266 1488 
Q 3266 1056 3080 686 
Q 2894 316 2569 119 
Q 2244 -78 1831 -78 
Q 1128 -78 684 439 
Q 241 956 241 2144 
Q 241 3472 731 4075 
Q 1159 4600 1884 4600 
Q 2425 4600 2770 4297 
Q 3116 3994 3184 3459 
z
M 888 1484 
Q 888 1194 1011 928 
Q 1134 663 1356 523 
Q 1578 384 1822 384 
Q 2178 384 2434 671 
Q 2691 959 2691 1453 
Q 2691 1928 2437 2201 
Q 2184 2475 1800 2475 
Q 1419 2475 1153 2201 
Q 888 1928 888 1484 
z
" transform="scale(0.015625)"/>
       </defs>
       <use xlink:href="#ArialMT-30"/>
       <use xlink:href="#ArialMT-2e" x="55.615234"/>
       <use xlink:href="#ArialMT-36" x="83.398438"/>
      </g>
     </g>
    </g>
    <g id="xtick_5">
     <g id="line2d_5">
      <g>
       <use xlink:href="#m01bb54546f" x="184.322835" y="227.055118" style="stroke: #000000; stroke-width: 0.8"/>
      </g>
     </g>
     <g id="text_5">
      <!-- 0.8 -->
      <g transform="translate(179.457835 239.065587) scale(0.07 -0.07)">
       <defs>
        <path id="ArialMT-38" d="M 1131 2484 
Q 781 2613 612 2850 
Q 444 3088 444 3419 
Q 444 3919 803 4259 
Q 1163 4600 1759 4600 
Q 2359 4600 2725 4251 
Q 3091 3903 3091 3403 
Q 3091 3084 2923 2848 
Q 2756 2613 2416 2484 
Q 2838 2347 3058 2040 
Q 3278 1734 3278 1309 
Q 3278 722 2862 322 
Q 2447 -78 1769 -78 
Q 1091 -78 675 323 
Q 259 725 259 1325 
Q 259 1772 486 2073 
Q 713 2375 1131 2484 
z
M 1019 3438 
Q 1019 3113 1228 2906 
Q 1438 2700 1772 2700 
Q 2097 2700 2305 2904 
Q 2513 3109 2513 3406 
Q 2513 3716 2298 3927 
Q 2084 4138 1766 4138 
Q 1444 4138 1231 3931 
Q 1019 3725 1019 3438 
z
M 838 1322 
Q 838 1081 952 856 
Q 1066 631 1291 507 
Q 1516 384 1775 384 
Q 2178 384 2440 643 
Q 2703 903 2703 1303 
Q 2703 1709 2433 1975 
Q 2163 2241 1756 2241 
Q 1359 2241 1098 1978 
Q 838 1716 838 1322 
z
" transform="scale(0.015625)"/>
       </defs>
       <use xlink:href="#ArialMT-30"/>
       <use xlink:href="#ArialMT-2e" x="55.615234"/>
       <use xlink:href="#ArialMT-38" x="83.398438"/>
      </g>
     </g>
    </g>
    <g id="xtick_6">
     <g id="line2d_6">
      <g>
       <use xlink:href="#m01bb54546f" x="220.03937" y="227.055118" style="stroke: #000000; stroke-width: 0.8"/>
      </g>
     </g>
     <g id="text_6">
      <!-- 1.0 -->
      <g transform="translate(215.17437 239.065587) scale(0.07 -0.07)">
       <defs>
        <path id="ArialMT-31" d="M 2384 0 
L 1822 0 
L 1822 3584 
Q 1619 3391 1289 3197 
Q 959 3003 697 2906 
L 697 3450 
Q 1169 3672 1522 3987 
Q 1875 4303 2022 4600 
L 2384 4600 
L 2384 0 
z
" transform="scale(0.015625)"/>
       </defs>
       <use xlink:href="#ArialMT-31"/>
       <use xlink:href="#ArialMT-2e" x="55.615234"/>
       <use xlink:href="#ArialMT-30" x="83.398438"/>
      </g>
     </g>
    </g>
    <g id="text_7">
     <!-- False Positive Rate -->
     <g transform="translate(100.597719 249.467306) scale(0.07 -0.07)">
      <defs>
       <path id="ArialMT-46" d="M 525 0 
L 525 4581 
L 3616 4581 
L 3616 4041 
L 1131 4041 
L 1131 2622 
L 3281 2622 
L 3281 2081 
L 1131 2081 
L 1131 0 
L 525 0 
z
" transform="scale(0.015625)"/>
       <path id="ArialMT-61" d="M 2588 409 
Q 2275 144 1986 34 
Q 1697 -75 1366 -75 
Q 819 -75 525 192 
Q 231 459 231 875 
Q 231 1119 342 1320 
Q 453 1522 633 1644 
Q 813 1766 1038 1828 
Q 1203 1872 1538 1913 
Q 2219 1994 2541 2106 
Q 2544 2222 2544 2253 
Q 2544 2597 2384 2738 
Q 2169 2928 1744 2928 
Q 1347 2928 1158 2789 
Q 969 2650 878 2297 
L 328 2372 
Q 403 2725 575 2942 
Q 747 3159 1072 3276 
Q 1397 3394 1825 3394 
Q 2250 3394 2515 3294 
Q 2781 3194 2906 3042 
Q 3031 2891 3081 2659 
Q 3109 2516 3109 2141 
L 3109 1391 
Q 3109 606 3145 398 
Q 3181 191 3288 0 
L 2700 0 
Q 2613 175 2588 409 
z
M 2541 1666 
Q 2234 1541 1622 1453 
Q 1275 1403 1131 1340 
Q 988 1278 909 1158 
Q 831 1038 831 891 
Q 831 666 1001 516 
Q 1172 366 1500 366 
Q 1825 366 2078 508 
Q 2331 650 2450 897 
Q 2541 1088 2541 1459 
L 2541 1666 
z
" transform="scale(0.015625)"/>
       <path id="ArialMT-6c" d="M 409 0 
L 409 4581 
L 972 4581 
L 972 0 
L 409 0 
z
" transform="scale(0.015625)"/>
       <path id="ArialMT-73" d="M 197 991 
L 753 1078 
Q 800 744 1014 566 
Q 1228 388 1613 388 
Q 2000 388 2187 545 
Q 2375 703 2375 916 
Q 2375 1106 2209 1216 
Q 2094 1291 1634 1406 
Q 1016 1563 777 1677 
Q 538 1791 414 1992 
Q 291 2194 291 2438 
Q 291 2659 392 2848 
Q 494 3038 669 3163 
Q 800 3259 1026 3326 
Q 1253 3394 1513 3394 
Q 1903 3394 2198 3281 
Q 2494 3169 2634 2976 
Q 2775 2784 2828 2463 
L 2278 2388 
Q 2241 2644 2061 2787 
Q 1881 2931 1553 2931 
Q 1166 2931 1000 2803 
Q 834 2675 834 2503 
Q 834 2394 903 2306 
Q 972 2216 1119 2156 
Q 1203 2125 1616 2013 
Q 2213 1853 2448 1751 
Q 2684 1650 2818 1456 
Q 2953 1263 2953 975 
Q 2953 694 2789 445 
Q 2625 197 2315 61 
Q 2006 -75 1616 -75 
Q 969 -75 630 194 
Q 291 463 197 991 
z
" transform="scale(0.015625)"/>
       <path id="ArialMT-65" d="M 2694 1069 
L 3275 997 
Q 3138 488 2766 206 
Q 2394 -75 1816 -75 
Q 1088 -75 661 373 
Q 234 822 234 1631 
Q 234 2469 665 2931 
Q 1097 3394 1784 3394 
Q 2450 3394 2872 2941 
Q 3294 2488 3294 1666 
Q 3294 1616 3291 1516 
L 816 1516 
Q 847 969 1125 678 
Q 1403 388 1819 388 
Q 2128 388 2347 550 
Q 2566 713 2694 1069 
z
M 847 1978 
L 2700 1978 
Q 2663 2397 2488 2606 
Q 2219 2931 1791 2931 
Q 1403 2931 1139 2672 
Q 875 2413 847 1978 
z
" transform="scale(0.015625)"/>
       <path id="ArialMT-20" transform="scale(0.015625)"/>
       <path id="ArialMT-50" d="M 494 0 
L 494 4581 
L 2222 4581 
Q 2678 4581 2919 4538 
Q 3256 4481 3484 4323 
Q 3713 4166 3852 3881 
Q 3991 3597 3991 3256 
Q 3991 2672 3619 2267 
Q 3247 1863 2275 1863 
L 1100 1863 
L 1100 0 
L 494 0 
z
M 1100 2403 
L 2284 2403 
Q 2872 2403 3119 2622 
Q 3366 2841 3366 3238 
Q 3366 3525 3220 3729 
Q 3075 3934 2838 4000 
Q 2684 4041 2272 4041 
L 1100 4041 
L 1100 2403 
z
" transform="scale(0.015625)"/>
       <path id="ArialMT-6f" d="M 213 1659 
Q 213 2581 725 3025 
Q 1153 3394 1769 3394 
Q 2453 3394 2887 2945 
Q 3322 2497 3322 1706 
Q 3322 1066 3130 698 
Q 2938 331 2570 128 
Q 2203 -75 1769 -75 
Q 1072 -75 642 372 
Q 213 819 213 1659 
z
M 791 1659 
Q 791 1022 1069 705 
Q 1347 388 1769 388 
Q 2188 388 2466 706 
Q 2744 1025 2744 1678 
Q 2744 2294 2464 2611 
Q 2184 2928 1769 2928 
Q 1347 2928 1069 2612 
Q 791 2297 791 1659 
z
" transform="scale(0.015625)"/>
       <path id="ArialMT-69" d="M 425 3934 
L 425 4581 
L 988 4581 
L 988 3934 
L 425 3934 
z
M 425 0 
L 425 3319 
L 988 3319 
L 988 0 
L 425 0 
z
" transform="scale(0.015625)"/>
       <path id="ArialMT-74" d="M 1650 503 
L 1731 6 
Q 1494 -44 1306 -44 
Q 1000 -44 831 53 
Q 663 150 594 308 
Q 525 466 525 972 
L 525 2881 
L 113 2881 
L 113 3319 
L 525 3319 
L 525 4141 
L 1084 4478 
L 1084 3319 
L 1650 3319 
L 1650 2881 
L 1084 2881 
L 1084 941 
Q 1084 700 1114 631 
Q 1144 563 1211 522 
Q 1278 481 1403 481 
Q 1497 481 1650 503 
z
" transform="scale(0.015625)"/>
       <path id="ArialMT-76" d="M 1344 0 
L 81 3319 
L 675 3319 
L 1388 1331 
Q 1503 1009 1600 663 
Q 1675 925 1809 1294 
L 2547 3319 
L 3125 3319 
L 1869 0 
L 1344 0 
z
" transform="scale(0.015625)"/>
       <path id="ArialMT-52" d="M 503 0 
L 503 4581 
L 2534 4581 
Q 3147 4581 3465 4457 
Q 3784 4334 3975 4021 
Q 4166 3709 4166 3331 
Q 4166 2844 3850 2509 
Q 3534 2175 2875 2084 
Q 3116 1969 3241 1856 
Q 3506 1613 3744 1247 
L 4541 0 
L 3778 0 
L 3172 953 
Q 2906 1366 2734 1584 
Q 2563 1803 2427 1890 
Q 2291 1978 2150 2013 
Q 2047 2034 1813 2034 
L 1109 2034 
L 1109 0 
L 503 0 
z
M 1109 2559 
L 2413 2559 
Q 2828 2559 3062 2645 
Q 3297 2731 3419 2920 
Q 3541 3109 3541 3331 
Q 3541 3656 3305 3865 
Q 3069 4075 2559 4075 
L 1109 4075 
L 1109 2559 
z
" transform="scale(0.015625)"/>
      </defs>
      <use xlink:href="#ArialMT-46"/>
      <use xlink:href="#ArialMT-61" x="61.083984"/>
      <use xlink:href="#ArialMT-6c" x="116.699219"/>
      <use xlink:href="#ArialMT-73" x="138.916016"/>
      <use xlink:href="#ArialMT-65" x="188.916016"/>
      <use xlink:href="#ArialMT-20" x="244.53125"/>
      <use xlink:href="#ArialMT-50" x="272.314453"/>
      <use xlink:href="#ArialMT-6f" x="339.013672"/>
      <use xlink:href="#ArialMT-73" x="394.628906"/>
      <use xlink:href="#ArialMT-69" x="444.628906"/>
      <use xlink:href="#ArialMT-74" x="466.845703"/>
      <use xlink:href="#ArialMT-69" x="494.628906"/>
      <use xlink:href="#ArialMT-76" x="516.845703"/>
      <use xlink:href="#ArialMT-65" x="566.845703"/>
      <use xlink:href="#ArialMT-20" x="622.460938"/>
      <use xlink:href="#ArialMT-52" x="650.244141"/>
      <use xlink:href="#ArialMT-61" x="722.460938"/>
      <use xlink:href="#ArialMT-74" x="778.076172"/>
      <use xlink:href="#ArialMT-65" x="805.859375"/>
     </g>
    </g>
   </g>
   <g id="matplotlib.axis_2">
    <g id="ytick_1">
     <g id="line2d_7">
      <defs>
       <path id="mae98f35ce3" d="M 0 0 
L -3.5 0 
" style="stroke: #000000; stroke-width: 0.8"/>
      </defs>
      <g>
       <use xlink:href="#mae98f35ce3" x="32.527559" y="218.125984" style="stroke: #000000; stroke-width: 0.8"/>
      </g>
     </g>
     <g id="text_8">
      <!-- 0.0 -->
      <g transform="translate(15.797559 220.631219) scale(0.07 -0.07)">
       <use xlink:href="#ArialMT-30"/>
       <use xlink:href="#ArialMT-2e" x="55.615234"/>
       <use xlink:href="#ArialMT-30" x="83.398438"/>
      </g>
     </g>
    </g>
    <g id="ytick_2">
     <g id="line2d_8">
      <g>
       <use xlink:href="#mae98f35ce3" x="32.527559" y="182.409449" style="stroke: #000000; stroke-width: 0.8"/>
      </g>
     </g>
     <g id="text_9">
      <!-- 0.2 -->
      <g transform="translate(15.797559 184.914683) scale(0.07 -0.07)">
       <use xlink:href="#ArialMT-30"/>
       <use xlink:href="#ArialMT-2e" x="55.615234"/>
       <use xlink:href="#ArialMT-32" x="83.398438"/>
      </g>
     </g>
    </g>
    <g id="ytick_3">
     <g id="line2d_9">
      <g>
       <use xlink:href="#mae98f35ce3" x="32.527559" y="146.692913" style="stroke: #000000; stroke-width: 0.8"/>
      </g>
     </g>
     <g id="text_10">
      <!-- 0.4 -->
      <g transform="translate(15.797559 149.198148) scale(0.07 -0.07)">
       <use xlink:href="#ArialMT-30"/>
       <use xlink:href="#ArialMT-2e" x="55.615234"/>
       <use xlink:href="#ArialMT-34" x="83.398438"/>
      </g>
     </g>
    </g>
    <g id="ytick_4">
     <g id="line2d_10">
      <g>
       <use xlink:href="#mae98f35ce3" x="32.527559" y="110.976378" style="stroke: #000000; stroke-width: 0.8"/>
      </g>
     </g>
     <g id="text_11">
      <!-- 0.6 -->
      <g transform="translate(15.797559 113.481612) scale(0.07 -0.07)">
       <use xlink:href="#ArialMT-30"/>
       <use xlink:href="#ArialMT-2e" x="55.615234"/>
       <use xlink:href="#ArialMT-36" x="83.398438"/>
      </g>
     </g>
    </g>
    <g id="ytick_5">
     <g id="line2d_11">
      <g>
       <use xlink:href="#mae98f35ce3" x="32.527559" y="75.259843" style="stroke: #000000; stroke-width: 0.8"/>
      </g>
     </g>
     <g id="text_12">
      <!-- 0.8 -->
      <g transform="translate(15.797559 77.765077) scale(0.07 -0.07)">
       <use xlink:href="#ArialMT-30"/>
       <use xlink:href="#ArialMT-2e" x="55.615234"/>
       <use xlink:href="#ArialMT-38" x="83.398438"/>
      </g>
     </g>
    </g>
    <g id="ytick_6">
     <g id="line2d_12">
      <g>
       <use xlink:href="#mae98f35ce3" x="32.527559" y="39.543307" style="stroke: #000000; stroke-width: 0.8"/>
      </g>
     </g>
     <g id="text_13">
      <!-- 1.0 -->
      <g transform="translate(15.797559 42.048541) scale(0.07 -0.07)">
       <use xlink:href="#ArialMT-31"/>
       <use xlink:href="#ArialMT-2e" x="55.615234"/>
       <use xlink:href="#ArialMT-30" x="83.398438"/>
      </g>
     </g>
    </g>
    <g id="text_14">
     <!-- True Positive Rate -->
     <g transform="translate(10.406309 157.491443) rotate(-90) scale(0.07 -0.07)">
      <defs>
       <path id="ArialMT-54" d="M 1659 0 
L 1659 4041 
L 150 4041 
L 150 4581 
L 3781 4581 
L 3781 4041 
L 2266 4041 
L 2266 0 
L 1659 0 
z
" transform="scale(0.015625)"/>
       <path id="ArialMT-72" d="M 416 0 
L 416 3319 
L 922 3319 
L 922 2816 
Q 1116 3169 1280 3281 
Q 1444 3394 1641 3394 
Q 1925 3394 2219 3213 
L 2025 2691 
Q 1819 2813 1613 2813 
Q 1428 2813 1281 2702 
Q 1134 2591 1072 2394 
Q 978 2094 978 1738 
L 978 0 
L 416 0 
z
" transform="scale(0.015625)"/>
       <path id="ArialMT-75" d="M 2597 0 
L 2597 488 
Q 2209 -75 1544 -75 
Q 1250 -75 995 37 
Q 741 150 617 320 
Q 494 491 444 738 
Q 409 903 409 1263 
L 409 3319 
L 972 3319 
L 972 1478 
Q 972 1038 1006 884 
Q 1059 663 1231 536 
Q 1403 409 1656 409 
Q 1909 409 2131 539 
Q 2353 669 2445 892 
Q 2538 1116 2538 1541 
L 2538 3319 
L 3100 3319 
L 3100 0 
L 2597 0 
z
" transform="scale(0.015625)"/>
      </defs>
      <use xlink:href="#ArialMT-54"/>
      <use xlink:href="#ArialMT-72" x="57.333984"/>
      <use xlink:href="#ArialMT-75" x="90.634766"/>
      <use xlink:href="#ArialMT-65" x="146.25"/>
      <use xlink:href="#ArialMT-20" x="201.865234"/>
      <use xlink:href="#ArialMT-50" x="229.648438"/>
      <use xlink:href="#ArialMT-6f" x="296.347656"/>
      <use xlink:href="#ArialMT-73" x="351.962891"/>
      <use xlink:href="#ArialMT-69" x="401.962891"/>
      <use xlink:href="#ArialMT-74" x="424.179688"/>
      <use xlink:href="#ArialMT-69" x="451.962891"/>
      <use xlink:href="#ArialMT-76" x="474.179688"/>
      <use xlink:href="#ArialMT-65" x="524.179688"/>
      <use xlink:href="#ArialMT-20" x="579.794922"/>
      <use xlink:href="#ArialMT-52" x="607.578125"/>
      <use xlink:href="#ArialMT-61" x="679.794922"/>
      <use xlink:href="#ArialMT-74" x="735.410156"/>
      <use xlink:href="#ArialMT-65" x="763.193359"/>
     </g>
    </g>
   </g>
   <g id="line2d_13">
    <path d="M 41.456693 218.125984 
L 42.944882 218.125984 
L 44.433071 218.125984 
L 44.433071 217.009843 
L 47.409449 217.009843 
L 47.409449 215.893701 
L 51.874016 215.893701 
L 51.874016 214.777559 
L 53.362205 214.777559 
L 53.362205 212.545276 
L 54.850394 212.545276 
L 54.850394 206.964567 
L 57.826772 206.964567 
L 57.826772 190.222441 
L 59.314961 190.222441 
L 59.314961 182.409449 
L 60.80315 182.409449 
L 60.80315 174.596457 
L 62.291339 174.596457 
L 62.291339 172.364173 
L 63.779528 172.364173 
L 63.779528 148.925197 
L 68.244094 148.925197 
L 68.244094 132.183071 
L 69.732283 132.183071 
L 69.732283 108.744094 
L 71.220472 108.744094 
L 71.220472 86.42126 
L 72.708661 86.42126 
L 72.708661 68.562992 
L 74.19685 68.562992 
L 74.19685 67.44685 
L 75.685039 67.44685 
L 75.685039 65.214567 
L 77.173228 65.214567 
L 77.173228 64.098425 
L 78.661417 64.098425 
L 78.661417 62.982283 
L 86.102362 62.982283 
L 86.102362 58.517717 
L 87.590551 58.517717 
L 87.590551 56.285433 
L 89.07874 56.285433 
L 89.07874 55.169291 
L 90.566929 55.169291 
L 90.566929 54.05315 
L 93.543307 54.05315 
L 93.543307 52.937008 
L 95.031496 52.937008 
L 95.031496 50.704724 
L 162 50.704724 
L 162 49.588583 
L 167.952756 49.588583 
L 167.952756 48.472441 
L 175.393701 48.472441 
L 175.393701 47.356299 
L 182.834646 47.356299 
L 182.834646 46.240157 
L 185.811024 46.240157 
L 185.811024 45.124016 
L 188.787402 45.124016 
L 188.787402 44.007874 
L 191.76378 44.007874 
L 191.76378 42.891732 
L 194.740157 42.891732 
L 194.740157 41.775591 
L 200.692913 41.775591 
L 200.692913 40.659449 
L 202.181102 40.659449 
L 202.181102 39.543307 
L 220.03937 39.543307 
" clip-path="url(#pe9132ed258)" style="fill: none; stroke: #000000; stroke-width: 1.5; stroke-linecap: square"/>
   </g>
   <g id="line2d_14">
    <path d="M 41.456693 218.125984 
L 42.944882 218.125984 
L 42.944882 215.893701 
L 44.433071 215.893701 
L 44.433071 212.545276 
L 50.385827 212.545276 
L 50.385827 210.312992 
L 51.874016 210.312992 
L 51.874016 209.19685 
L 53.362205 209.19685 
L 53.362205 206.964567 
L 54.850394 206.964567 
L 54.850394 201.383858 
L 56.338583 201.383858 
L 56.338583 199.151575 
L 57.826772 199.151575 
L 57.826772 198.035433 
L 59.314961 198.035433 
L 59.314961 195.80315 
L 60.80315 195.80315 
L 60.80315 186.874016 
L 62.291339 186.874016 
L 62.291339 180.177165 
L 66.755906 180.177165 
L 66.755906 177.944882 
L 69.732283 177.944882 
L 69.732283 165.667323 
L 71.220472 165.667323 
L 71.220472 163.435039 
L 72.708661 163.435039 
L 72.708661 103.163386 
L 75.685039 103.163386 
L 75.685039 84.188976 
L 77.173228 84.188976 
L 77.173228 56.285433 
L 78.661417 56.285433 
L 84.614173 55.169291 
L 84.614173 54.05315 
L 89.07874 54.05315 
L 89.07874 52.937008 
L 117.354331 52.937008 
L 117.354331 51.820866 
L 129.259843 51.820866 
L 129.259843 50.704724 
L 138.188976 50.704724 
L 138.188976 48.472441 
L 147.11811 48.472441 
L 147.11811 45.124016 
L 148.606299 45.124016 
L 148.606299 42.891732 
L 162 42.891732 
L 162 41.775591 
L 169.440945 41.775591 
L 169.440945 40.659449 
L 209.622047 40.659449 
L 209.622047 39.543307 
L 220.03937 39.543307 
" clip-path="url(#pe9132ed258)" style="fill: none; stroke: #000000; stroke-width: 1.5; stroke-linecap: square"/>
   </g>
   <g id="line2d_15">
    <path d="M 41.456693 218.125984 
L 41.456693 217.009843 
L 41.456693 212.545276 
L 42.944882 212.545276 
L 42.944882 211.429134 
L 44.433071 211.429134 
L 44.433071 209.19685 
L 47.409449 209.19685 
L 47.409449 208.080709 
L 50.385827 208.080709 
L 50.385827 206.964567 
L 51.874016 206.964567 
L 51.874016 174.596457 
L 53.362205 174.596457 
L 53.362205 169.015748 
L 54.850394 169.015748 
L 54.850394 163.435039 
L 56.338583 163.435039 
L 56.338583 154.505906 
L 57.826772 154.505906 
L 57.826772 122.137795 
L 59.314961 122.137795 
L 59.314961 99.814961 
L 60.80315 99.814961 
L 60.80315 89.769685 
L 62.291339 89.769685 
L 62.291339 86.42126 
L 65.267717 86.42126 
L 65.267717 85.305118 
L 66.755906 85.305118 
L 66.755906 70.795276 
L 68.244094 70.795276 
L 68.244094 69.679134 
L 69.732283 69.679134 
L 69.732283 66.330709 
L 71.220472 66.330709 
L 71.220472 64.098425 
L 72.708661 64.098425 
L 72.708661 62.982283 
L 74.19685 62.982283 
L 74.19685 60.75 
L 75.685039 60.75 
L 78.661417 59.633858 
L 81.637795 59.633858 
L 81.637795 58.517717 
L 87.590551 58.517717 
L 87.590551 57.401575 
L 92.055118 57.401575 
L 92.055118 56.285433 
L 99.496063 56.285433 
L 99.496063 55.169291 
L 103.96063 55.169291 
L 103.96063 54.05315 
L 105.448819 54.05315 
L 105.448819 52.937008 
L 117.354331 52.937008 
L 117.354331 51.820866 
L 118.84252 51.820866 
L 118.84252 50.704724 
L 121.818898 50.704724 
L 121.818898 49.588583 
L 151.582677 49.588583 
L 151.582677 48.472441 
L 167.952756 48.472441 
L 167.952756 47.356299 
L 172.417323 47.356299 
L 172.417323 45.124016 
L 173.905512 45.124016 
L 173.905512 44.007874 
L 178.370079 44.007874 
L 178.370079 42.891732 
L 200.692913 42.891732 
L 200.692913 40.659449 
L 217.062992 40.659449 
L 217.062992 39.543307 
L 220.03937 39.543307 
" clip-path="url(#pe9132ed258)" style="fill: none; stroke: #000000; stroke-width: 1.5; stroke-linecap: square"/>
   </g>
   <g id="line2d_16">
    <path d="M 41.456693 218.125984 
L 41.456693 217.009843 
L 42.944882 217.009843 
L 42.944882 213.661417 
L 44.433071 213.661417 
L 44.433071 211.429134 
L 45.92126 211.429134 
L 45.92126 205.848425 
L 50.385827 205.848425 
L 50.385827 203.616142 
L 51.874016 203.616142 
L 51.874016 175.712598 
L 53.362205 175.712598 
L 53.362205 153.389764 
L 54.850394 153.389764 
L 54.850394 150.041339 
L 56.338583 150.041339 
L 56.338583 141.112205 
L 57.826772 141.112205 
L 57.826772 87.537402 
L 59.314961 87.537402 
L 59.314961 73.027559 
L 65.267717 73.027559 
L 65.267717 71.911417 
L 68.244094 71.911417 
L 68.244094 69.679134 
L 71.220472 69.679134 
L 71.220472 68.562992 
L 75.685039 68.562992 
L 75.685039 65.214567 
L 77.173228 65.214567 
L 77.173228 62.982283 
L 78.661417 62.982283 
L 78.661417 60.75 
L 81.637795 60.75 
L 81.637795 59.633858 
L 86.102362 59.633858 
L 86.102362 58.517717 
L 90.566929 58.517717 
L 90.566929 57.401575 
L 93.543307 57.401575 
L 99.496063 57.401575 
L 100.984252 57.401575 
L 100.984252 56.285433 
L 102.472441 56.285433 
L 102.472441 52.937008 
L 108.425197 52.937008 
L 108.425197 50.704724 
L 133.724409 50.704724 
L 133.724409 48.472441 
L 145.629921 48.472441 
L 145.629921 47.356299 
L 147.11811 47.356299 
L 147.11811 46.240157 
L 154.559055 46.240157 
L 154.559055 45.124016 
L 159.023622 45.124016 
L 159.023622 44.007874 
L 176.88189 44.007874 
L 176.88189 42.891732 
L 182.834646 42.891732 
L 182.834646 41.775591 
L 184.322835 41.775591 
L 184.322835 40.659449 
L 215.574803 40.659449 
L 215.574803 39.543307 
L 220.03937 39.543307 
" clip-path="url(#pe9132ed258)" style="fill: none; stroke: #000000; stroke-width: 1.5; stroke-linecap: square"/>
   </g>
   <g id="line2d_17">
    <path d="M 41.456693 218.125984 
L 41.456693 217.009843 
L 41.456693 215.893701 
L 42.944882 215.893701 
L 42.944882 214.777559 
L 47.409449 214.777559 
L 47.409449 210.312992 
L 48.897638 210.312992 
L 48.897638 208.080709 
L 50.385827 208.080709 
L 50.385827 206.964567 
L 51.874016 206.964567 
L 51.874016 201.383858 
L 53.362205 201.383858 
L 53.362205 187.990157 
L 54.850394 187.990157 
L 54.850394 157.854331 
L 56.338583 157.854331 
L 56.338583 154.505906 
L 59.314961 154.505906 
L 59.314961 142.228346 
L 60.80315 142.228346 
L 60.80315 129.950787 
L 62.291339 129.950787 
L 62.291339 127.718504 
L 63.779528 127.718504 
L 63.779528 126.602362 
L 65.267717 126.602362 
L 65.267717 109.860236 
L 66.755906 109.860236 
L 66.755906 105.395669 
L 68.244094 105.395669 
L 68.244094 104.279528 
L 69.732283 104.279528 
L 69.732283 84.188976 
L 71.220472 84.188976 
L 71.220472 70.795276 
L 72.708661 70.795276 
L 72.708661 65.214567 
L 78.661417 65.214567 
L 78.661417 64.098425 
L 81.637795 64.098425 
L 81.637795 62.982283 
L 99.496063 62.982283 
L 99.496063 61.866142 
L 117.354331 61.866142 
L 117.354331 59.633858 
L 120.330709 59.633858 
L 120.330709 58.517717 
L 126.283465 58.517717 
L 126.283465 57.401575 
L 130.748031 57.401575 
L 130.748031 56.285433 
L 153.070866 56.285433 
L 153.070866 55.169291 
L 157.535433 55.169291 
L 157.535433 52.937008 
L 159.023622 52.937008 
L 159.023622 51.820866 
L 164.976378 51.820866 
L 164.976378 50.704724 
L 179.858268 50.704724 
L 179.858268 49.588583 
L 190.275591 49.588583 
L 190.275591 48.472441 
L 194.740157 48.472441 
L 194.740157 47.356299 
L 200.692913 47.356299 
L 200.692913 45.124016 
L 202.181102 45.124016 
L 202.181102 44.007874 
L 209.622047 44.007874 
L 209.622047 40.659449 
L 217.062992 40.659449 
L 217.062992 39.543307 
L 220.03937 39.543307 
" clip-path="url(#pe9132ed258)" style="fill: none; stroke: #000000; stroke-width: 1.5; stroke-linecap: square"/>
   </g>
   <g id="line2d_18">
    <path d="M 41.456693 218.125984 
L 41.456693 217.009843 
L 41.456693 202.5 
L 42.944882 202.5 
L 42.944882 199.151575 
L 44.433071 199.151575 
L 44.433071 195.80315 
L 45.92126 195.80315 
L 45.92126 187.990157 
L 47.409449 187.990157 
L 47.409449 182.409449 
L 48.897638 182.409449 
L 48.897638 180.177165 
L 51.874016 180.177165 
L 51.874016 179.061024 
L 53.362205 179.061024 
L 53.362205 174.596457 
L 54.850394 174.596457 
L 54.850394 171.248031 
L 56.338583 171.248031 
L 56.338583 156.738189 
L 57.826772 156.738189 
L 57.826772 152.273622 
L 59.314961 152.273622 
L 59.314961 147.809055 
L 60.80315 147.809055 
L 60.80315 137.76378 
L 62.291339 137.76378 
L 62.291339 135.531496 
L 63.779528 135.531496 
L 63.779528 133.299213 
L 68.244094 133.299213 
L 68.244094 129.950787 
L 69.732283 129.950787 
L 69.732283 125.48622 
L 71.220472 125.48622 
L 71.220472 123.253937 
L 72.708661 123.253937 
L 72.708661 118.78937 
L 74.19685 118.78937 
L 74.19685 112.09252 
L 77.173228 112.09252 
L 77.173228 103.163386 
L 78.661417 103.163386 
L 78.661417 98.698819 
L 80.149606 98.698819 
L 80.149606 87.537402 
L 81.637795 87.537402 
L 81.637795 81.956693 
L 83.125984 81.956693 
L 83.125984 79.724409 
L 84.614173 79.724409 
L 84.614173 71.911417 
L 86.102362 71.911417 
L 86.102362 68.562992 
L 90.566929 68.562992 
L 90.566929 67.44685 
L 93.543307 67.44685 
L 93.543307 66.330709 
L 95.031496 66.330709 
L 95.031496 61.866142 
L 96.519685 61.866142 
L 96.519685 60.75 
L 98.007874 60.75 
L 105.448819 58.517717 
L 114.377953 58.517717 
L 114.377953 56.285433 
L 115.866142 56.285433 
L 115.866142 54.05315 
L 129.259843 54.05315 
L 129.259843 50.704724 
L 130.748031 50.704724 
L 130.748031 49.588583 
L 133.724409 49.588583 
L 133.724409 47.356299 
L 136.700787 47.356299 
L 136.700787 46.240157 
L 142.653543 46.240157 
L 142.653543 44.007874 
L 144.141732 44.007874 
L 144.141732 42.891732 
L 148.606299 42.891732 
L 148.606299 41.775591 
L 153.070866 41.775591 
L 153.070866 40.659449 
L 166.464567 40.659449 
L 166.464567 39.543307 
L 220.03937 39.543307 
" clip-path="url(#pe9132ed258)" style="fill: none; stroke: #000000; stroke-width: 1.5; stroke-linecap: square"/>
   </g>
   <g id="line2d_19">
    <path d="M 41.456693 218.125984 
L 41.456693 217.009843 
L 44.433071 217.009843 
L 44.433071 215.893701 
L 47.409449 215.893701 
L 47.409449 214.777559 
L 48.897638 214.777559 
L 48.897638 213.661417 
L 53.362205 213.661417 
L 53.362205 211.429134 
L 56.338583 211.429134 
L 56.338583 109.860236 
L 57.826772 109.860236 
L 57.826772 108.744094 
L 59.314961 108.744094 
L 59.314961 99.814961 
L 60.80315 99.814961 
L 60.80315 96.466535 
L 62.291339 96.466535 
L 62.291339 85.305118 
L 63.779528 85.305118 
L 63.779528 81.956693 
L 65.267717 81.956693 
L 65.267717 79.724409 
L 68.244094 79.724409 
L 68.244094 78.608268 
L 69.732283 78.608268 
L 69.732283 77.492126 
L 71.220472 77.492126 
L 71.220472 76.375984 
L 72.708661 76.375984 
L 72.708661 75.259843 
L 74.19685 75.259843 
L 74.19685 66.330709 
L 75.685039 66.330709 
L 75.685039 62.982283 
L 77.173228 62.982283 
L 77.173228 61.866142 
L 83.125984 61.866142 
L 83.125984 60.75 
L 86.102362 60.75 
L 93.543307 60.75 
L 93.543307 59.633858 
L 96.519685 59.633858 
L 96.519685 58.517717 
L 98.007874 58.517717 
L 98.007874 57.401575 
L 99.496063 57.401575 
L 99.496063 56.285433 
L 105.448819 56.285433 
L 105.448819 52.937008 
L 114.377953 52.937008 
L 114.377953 51.820866 
L 115.866142 51.820866 
L 115.866142 50.704724 
L 123.307087 50.704724 
L 123.307087 48.472441 
L 127.771654 48.472441 
L 127.771654 47.356299 
L 130.748031 47.356299 
L 130.748031 46.240157 
L 133.724409 46.240157 
L 133.724409 45.124016 
L 144.141732 45.124016 
L 144.141732 44.007874 
L 150.094488 44.007874 
L 150.094488 42.891732 
L 151.582677 42.891732 
L 151.582677 41.775591 
L 173.905512 41.775591 
L 173.905512 40.659449 
L 197.716535 40.659449 
L 197.716535 39.543307 
L 220.03937 39.543307 
" clip-path="url(#pe9132ed258)" style="fill: none; stroke: #000000; stroke-width: 1.5; stroke-linecap: square"/>
   </g>
   <g id="line2d_20">
    <path d="M 41.456693 218.125984 
L 42.944882 218.125984 
L 54.850394 218.125984 
L 54.850394 204.732283 
L 56.338583 204.732283 
L 56.338583 138.879921 
L 57.826772 138.879921 
L 57.826772 123.253937 
L 59.314961 123.253937 
L 59.314961 116.557087 
L 62.291339 116.557087 
L 62.291339 110.976378 
L 63.779528 110.976378 
L 63.779528 100.931102 
L 65.267717 100.931102 
L 65.267717 98.698819 
L 68.244094 98.698819 
L 68.244094 96.466535 
L 69.732283 96.466535 
L 69.732283 90.885827 
L 71.220472 90.885827 
L 71.220472 88.653543 
L 72.708661 88.653543 
L 72.708661 87.537402 
L 74.19685 87.537402 
L 74.19685 67.44685 
L 77.173228 67.44685 
L 77.173228 65.214567 
L 80.149606 65.214567 
L 80.149606 64.098425 
L 81.637795 64.098425 
L 81.637795 61.866142 
L 83.125984 61.866142 
L 83.125984 54.05315 
L 90.566929 54.05315 
L 90.566929 52.937008 
L 96.519685 52.937008 
L 96.519685 51.820866 
L 98.007874 51.820866 
L 98.007874 50.704724 
L 99.496063 50.704724 
L 99.496063 49.588583 
L 106.937008 49.588583 
L 106.937008 46.240157 
L 111.401575 46.240157 
L 111.401575 44.007874 
L 117.354331 44.007874 
L 117.354331 42.891732 
L 118.84252 42.891732 
L 118.84252 40.659449 
L 167.952756 40.659449 
L 167.952756 39.543307 
L 220.03937 39.543307 
" clip-path="url(#pe9132ed258)" style="fill: none; stroke: #000000; stroke-width: 1.5; stroke-linecap: square"/>
   </g>
   <g id="line2d_21">
    <path d="M 41.456693 218.125984 
L 42.944882 218.125984 
L 42.944882 217.009843 
L 44.433071 217.009843 
L 44.433071 215.893701 
L 45.92126 215.893701 
L 45.92126 213.661417 
L 47.409449 213.661417 
L 47.409449 212.545276 
L 48.897638 212.545276 
L 48.897638 198.035433 
L 50.385827 198.035433 
L 50.385827 189.106299 
L 51.874016 189.106299 
L 51.874016 161.202756 
L 53.362205 161.202756 
L 53.362205 154.505906 
L 54.850394 154.505906 
L 54.850394 137.76378 
L 56.338583 137.76378 
L 56.338583 131.066929 
L 57.826772 131.066929 
L 57.826772 97.582677 
L 59.314961 97.582677 
L 59.314961 96.466535 
L 62.291339 96.466535 
L 62.291339 94.234252 
L 65.267717 94.234252 
L 65.267717 83.072835 
L 69.732283 83.072835 
L 69.732283 81.956693 
L 71.220472 81.956693 
L 71.220472 78.608268 
L 72.708661 78.608268 
L 72.708661 77.492126 
L 77.173228 77.492126 
L 77.173228 73.027559 
L 78.661417 73.027559 
L 78.661417 68.562992 
L 80.149606 68.562992 
L 80.149606 62.982283 
L 81.637795 62.982283 
L 81.637795 60.75 
L 83.125984 60.75 
L 83.125984 59.633858 
L 86.102362 59.633858 
L 86.102362 57.401575 
L 87.590551 57.401575 
L 87.590551 56.285433 
L 89.07874 56.285433 
L 89.07874 55.169291 
L 95.031496 55.169291 
L 95.031496 54.05315 
L 96.519685 54.05315 
L 96.519685 52.937008 
L 99.496063 52.937008 
L 99.496063 50.704724 
L 112.889764 50.704724 
L 112.889764 49.588583 
L 114.377953 49.588583 
L 114.377953 48.472441 
L 115.866142 48.472441 
L 115.866142 47.356299 
L 118.84252 47.356299 
L 118.84252 45.124016 
L 124.795276 45.124016 
L 124.795276 44.007874 
L 133.724409 44.007874 
L 133.724409 42.891732 
L 136.700787 42.891732 
L 136.700787 40.659449 
L 160.511811 40.659449 
L 160.511811 39.543307 
L 220.03937 39.543307 
" clip-path="url(#pe9132ed258)" style="fill: none; stroke: #000000; stroke-width: 1.5; stroke-linecap: square"/>
   </g>
   <g id="line2d_22">
    <path d="M 41.456693 218.125984 
L 42.944882 218.125984 
L 45.92126 218.125984 
L 45.92126 217.009843 
L 47.409449 217.009843 
L 47.409449 215.893701 
L 48.897638 215.893701 
L 48.897638 212.545276 
L 50.385827 212.545276 
L 50.385827 211.429134 
L 51.874016 211.429134 
L 51.874016 208.080709 
L 53.362205 208.080709 
L 53.362205 206.964567 
L 54.850394 206.964567 
L 54.850394 183.525591 
L 56.338583 183.525591 
L 56.338583 107.627953 
L 57.826772 107.627953 
L 57.826772 105.395669 
L 59.314961 105.395669 
L 59.314961 95.350394 
L 60.80315 95.350394 
L 60.80315 79.724409 
L 62.291339 79.724409 
L 62.291339 73.027559 
L 63.779528 73.027559 
L 63.779528 70.795276 
L 66.755906 70.795276 
L 66.755906 57.401575 
L 71.220472 57.401575 
L 71.220472 55.169291 
L 72.708661 55.169291 
L 72.708661 54.05315 
L 78.661417 54.05315 
L 78.661417 51.820866 
L 80.149606 51.820866 
L 80.149606 49.588583 
L 102.472441 49.588583 
L 102.472441 48.472441 
L 103.96063 48.472441 
L 103.96063 47.356299 
L 112.889764 47.356299 
L 112.889764 46.240157 
L 120.330709 46.240157 
L 120.330709 45.124016 
L 132.23622 45.124016 
L 132.23622 44.007874 
L 154.559055 44.007874 
L 154.559055 42.891732 
L 163.488189 42.891732 
L 163.488189 41.775591 
L 170.929134 41.775591 
L 170.929134 40.659449 
L 176.88189 40.659449 
L 176.88189 39.543307 
L 220.03937 39.543307 
" clip-path="url(#pe9132ed258)" style="fill: none; stroke: #000000; stroke-width: 1.5; stroke-linecap: square"/>
   </g>
   <g id="line2d_23">
    <path d="M 41.456693 218.125984 
L 42.944882 218.125984 
L 45.92126 218.125984 
L 45.92126 217.009843 
L 47.409449 217.009843 
L 47.409449 215.893701 
L 48.897638 215.893701 
L 48.897638 212.545276 
L 50.385827 212.545276 
L 50.385827 211.429134 
L 51.874016 211.429134 
L 51.874016 208.080709 
L 53.362205 208.080709 
L 53.362205 206.964567 
L 54.850394 206.964567 
L 54.850394 183.525591 
L 56.338583 183.525591 
L 56.338583 107.627953 
L 57.826772 107.627953 
L 57.826772 105.395669 
L 59.314961 105.395669 
L 59.314961 95.350394 
L 60.80315 95.350394 
L 60.80315 79.724409 
L 62.291339 79.724409 
L 62.291339 73.027559 
L 63.779528 73.027559 
L 63.779528 70.795276 
L 66.755906 70.795276 
L 66.755906 57.401575 
L 71.220472 57.401575 
L 71.220472 55.169291 
L 72.708661 55.169291 
L 72.708661 54.05315 
L 78.661417 54.05315 
L 78.661417 51.820866 
L 80.149606 51.820866 
L 80.149606 49.588583 
L 102.472441 49.588583 
L 102.472441 48.472441 
L 103.96063 48.472441 
L 103.96063 47.356299 
L 112.889764 47.356299 
L 112.889764 46.240157 
L 120.330709 46.240157 
L 120.330709 45.124016 
L 132.23622 45.124016 
L 132.23622 44.007874 
L 154.559055 44.007874 
L 154.559055 42.891732 
L 163.488189 42.891732 
L 163.488189 41.775591 
L 170.929134 41.775591 
L 170.929134 40.659449 
L 176.88189 40.659449 
L 176.88189 39.543307 
L 220.03937 39.543307 
" clip-path="url(#pe9132ed258)" style="fill: none; stroke: #0000ff; stroke-width: 3; stroke-linecap: square"/>
   </g>
   <g id="line2d_24">
    <path d="M 41.456693 218.125984 
L 220.03937 39.543307 
" clip-path="url(#pe9132ed258)" style="fill: none; stroke-dasharray: 5.55,2.4; stroke-dashoffset: 0; stroke: #000000; stroke-width: 1.5"/>
   </g>
   <g id="patch_3">
    <path d="M 32.527559 227.055118 
L 32.527559 30.614173 
" style="fill: none; stroke: #000000; stroke-width: 0.8; stroke-linejoin: miter; stroke-linecap: square"/>
   </g>
   <g id="patch_4">
    <path d="M 228.968504 227.055118 
L 228.968504 30.614173 
" style="fill: none; stroke: #000000; stroke-width: 0.8; stroke-linejoin: miter; stroke-linecap: square"/>
   </g>
   <g id="patch_5">
    <path d="M 32.527559 227.055118 
L 228.968504 227.055118 
" style="fill: none; stroke: #000000; stroke-width: 0.8; stroke-linejoin: miter; stroke-linecap: square"/>
   </g>
   <g id="patch_6">
    <path d="M 32.527559 30.614173 
L 228.968504 30.614173 
" style="fill: none; stroke: #000000; stroke-width: 0.8; stroke-linejoin: miter; stroke-linecap: square"/>
   </g>
  </g>
 </g>
 <defs>
  <clipPath id="pe9132ed258">
   <rect x="32.527559" y="30.614173" width="196.440945" height="196.440945"/>
  </clipPath>
 </defs>
</svg>
